<?xml version="1.0" standalone="no"?>
<!DOCTYPE svg PUBLIC "-//W3C//DTD SVG 1.1//EN" "http://www.w3.org/Graphics/SVG/1.1/DTD/svg11.dtd" >
<svg xmlns="http://www.w3.org/2000/svg">
<metadata>
This is a custom SVG webfont generated by Font Squirrel.
Copyright   : Copyright c 1990 Adobe Systems Incorporated  All Rights ReservedHelvetica is a trademark of Linotype AG andor its subsidiaries
</metadata>
<defs>
<font id="HelveticaNeueBold" horiz-adv-x="1593" >
<font-face units-per-em="2048" ascent="1638" descent="-410" />
<missing-glyph horiz-adv-x="757" />
<glyph unicode=" "  horiz-adv-x="757" />
<glyph unicode="&#x09;" horiz-adv-x="757" />
<glyph unicode="&#xa0;" horiz-adv-x="757" />
<glyph unicode="!" horiz-adv-x="757" d="M180 0h398v348h-398v-348zM180 1462l62 -989h274l62 989h-398z" />
<glyph unicode="&#x22;" horiz-adv-x="1212" d="M266 739h254v723h-254v-723zM692 739h254v723h-254v-723z" />
<glyph unicode="#" horiz-adv-x="1671" d="M274 360h172l-51 -360h226l51 360h229l-51 -360h225l51 360h203v226h-172l37 250h203v225h-172l51 360h-225l-52 -360h-229l51 360h-225l-51 -360h-203v-225h172l-37 -250h-203v-226zM702 586l37 250h230l-37 -250h-230z" />
<glyph unicode="$" horiz-adv-x="1671" d="M104 449q6 -121 46 -210t121 -148.5t205 -91.5t298 -40v-219h152v219q184 6 307 45t196.5 104.5t105.5 152.5t32 188q0 170 -116 263t-316 126l-209 32v326q70 -14 119 -56t63 -130h410q-6 123 -60.5 205.5t-137.5 135t-186.5 78t-207.5 33.5v170h-152v-170 q-129 -2 -244.5 -27.5t-203.5 -78.5t-140.5 -138t-52.5 -206t47 -195t117 -116t149.5 -60t147.5 -29l180 -28v-371q-49 6 -93 22.5t-78 44t-54.5 68.5t-22.5 101h-422zM518 1051q0 47 24.5 77.5t61.5 48t82 24.5t88 7v-313q-72 12 -121 22.5t-78.5 27t-43 42t-13.5 64.5z M926 213v348q49 -8 90 -19.5t69.5 -29.5t44 -45t15.5 -68q0 -76 -53 -125t-166 -61z" />
<glyph unicode="%" horiz-adv-x="2123" d="M78 1065q0 -182 98 -289.5t320 -107.5q221 0 319 107.5t98 289.5t-98 289.5t-319 107.5t-319.5 -107.5t-98.5 -289.5zM319 1065q0 37 6.5 76t25 71.5t53 53t92.5 20.5q57 0 92 -20.5t53 -53t24.5 -71.5t6.5 -76t-6.5 -76t-24.5 -71.5t-53 -53t-92 -20.5t-92 20.5 t-53.5 53t-25 71.5t-6.5 76zM496 -41h200l930 1503h-201zM1210 356q0 -182 98.5 -289.5t319.5 -107.5t319.5 107.5t98.5 289.5t-98.5 290t-319.5 108t-319.5 -108t-98.5 -290zM1452 356q0 37 6 76t24.5 72t53.5 53.5t92 20.5t92 -20.5t53.5 -53.5t24.5 -72t6 -76t-6 -75.5 t-24.5 -71.5t-53 -53.5t-92.5 -20.5q-57 0 -92 20.5t-53.5 53.5t-24.5 71.5t-6 75.5z" />
<glyph unicode="&#x26;" horiz-adv-x="1896" d="M117 420q0 -119 48 -206t132 -143.5t197.5 -84t246.5 -27.5q164 0 295 43t260 137l148 -139h485l-379 348q39 37 68 72t53.5 71.5t46 77.5t41.5 90l-225 109q-12 -27 -31.5 -61.5t-44 -68.5t-51.5 -65.5t-51 -56.5l-316 291q59 18 115.5 46t99.5 68t70 94t27 122 q0 84 -40 144t-108.5 101t-161 60.5t-196.5 19.5q-84 0 -169 -17.5t-153.5 -57t-111.5 -107.5t-43 -166q0 -47 10 -84t29.5 -67.5t47 -58t60.5 -56.5q-88 -23 -160.5 -60.5t-126 -91t-83 -122t-29.5 -154.5zM502 459q0 41 17.5 76.5t46 65.5t64.5 53.5t70 35.5l412 -375 q-66 -55 -145.5 -78.5t-171.5 -23.5q-49 0 -101.5 14.5t-94.5 44t-69.5 75.5t-27.5 112zM717 1137q0 59 46 85.5t111 26.5q25 0 51.5 -7t50 -22.5t38 -38t14.5 -53.5q0 -37 -17.5 -64.5t-44 -50t-58 -39t-60.5 -28.5q-14 10 -37 28.5t-43 42t-35.5 54.5t-15.5 66z" />
<glyph unicode="'" horiz-adv-x="757" d="M252 739h254v723h-254v-723z" />
<glyph unicode="(" horiz-adv-x="909" d="M156 537q0 -129 27.5 -256t79.5 -246t125 -226.5t165 -197.5h252q-141 207 -215 441.5t-74 484.5t74 484t215 441h-252q-92 -90 -165 -197.5t-125 -226t-79.5 -245.5t-27.5 -256z" />
<glyph unicode=")" horiz-adv-x="909" d="M104 -389h252q92 90 165 197.5t125 226.5t80 246t28 256t-28 256t-80 245.5t-124.5 226t-165.5 197.5h-252q141 -207 215 -441.5t74 -483.5q0 -250 -74 -484.5t-215 -441.5z" />
<glyph unicode="*" horiz-adv-x="950" d="M49 1083l268 -88l-188 -217l166 -127l180 226l180 -226l166 127l-188 217l268 88l-70 201l-256 -100l13 278h-226l13 -278l-256 100z" />
<glyph unicode="+" horiz-adv-x="1228" d="M96 391h391v-391h254v391h392v254h-392v391h-254v-391h-391v-254z" />
<glyph unicode="," horiz-adv-x="757" d="M180 0h185q-8 -102 -46 -153.5t-139 -77.5v-144q201 27 299.5 144.5t98.5 316.5v262h-398v-348z" />
<glyph unicode="-" horiz-adv-x="985" d="M127 446h731v279h-731v-279z" />
<glyph unicode="." horiz-adv-x="757" d="M180 0h398v348h-398v-348z" />
<glyph unicode="/" horiz-adv-x="872" d="M-4 -41h276l605 1544h-275z" />
<glyph unicode="0" horiz-adv-x="1671" d="M86 711q0 -360 193.5 -554t556.5 -194q188 0 328.5 53.5t233.5 151.5t140 236.5t47 306.5q0 360 -193.5 553.5t-555.5 193.5t-556 -193.5t-194 -553.5zM471 711q0 96 18.5 183t61.5 153.5t112.5 105.5t172.5 39q102 0 171.5 -39t112.5 -105.5t61.5 -153.5t18.5 -183 t-18.5 -183.5t-61.5 -154t-112.5 -105.5t-171.5 -39t-172 39t-113 105.5t-61.5 154t-18.5 183.5z" />
<glyph unicode="1" horiz-adv-x="1138" d="M76 907h430v-907h373v1421h-289q-31 -86 -71 -136t-99.5 -76.5t-142 -36t-201.5 -11.5v-254z" />
<glyph unicode="2" horiz-adv-x="1671" d="M86 0h1462v279h-1030q47 63 121 101t139 60l166 52q147 45 261 88t192 98t118.5 128t40.5 179q0 86 -35.5 171t-118.5 151.5t-215 108.5t-327 42q-145 0 -276 -26.5t-231.5 -88t-162 -164t-67.5 -255.5h409q8 76 40 127t79 82.5t105.5 45t117.5 13.5q129 0 201 -55.5 t72 -145.5q0 -66 -44 -108.5t-117 -74.5t-166 -59.5t-190.5 -64.5t-191.5 -88t-171 -131t-126 -192.5t-55 -272.5z" />
<glyph unicode="3" horiz-adv-x="1671" d="M86 465q6 -139 59.5 -234.5t147.5 -155t225 -86t293 -26.5q229 0 377.5 41t234.5 106.5t120 150.5t34 171q0 129 -78 219t-211 117v4q109 23 170.5 93.5t61.5 181.5q0 88 -37 162.5t-116 130t-204 87t-301 31.5q-127 0 -252 -19.5t-226 -69.5t-170 -137t-85 -222h397 q23 100 104 147t189 47q127 0 209 -44t82 -138q0 -27 -10 -54.5t-33 -50t-56.5 -37t-82.5 -14.5h-301v-254h266q47 0 93 -9t84 -30.5t61.5 -56.5t23.5 -86q0 -96 -84 -148.5t-240 -52.5q-57 0 -118.5 11.5t-111.5 38t-84 71.5t-34 115h-397z" />
<glyph unicode="4" horiz-adv-x="1671" d="M82 274h899v-274h348v274h260v254h-260v893h-452l-795 -878v-269zM449 528l532 602v-602h-532z" />
<glyph unicode="5" horiz-adv-x="1671" d="M86 424q4 -94 40 -165t92 -122t131 -85t156 -53t164 -27.5t158 -8.5q147 0 280.5 30t236 93.5t163 161.5t60.5 235q0 139 -61.5 231.5t-159 148t-215 78t-232.5 22.5q-43 0 -97 -5.5t-110.5 -15.5t-109 -26.5t-88.5 -38.5l49 278h927v266h-1187l-138 -798h377 q55 53 139 75.5t158 22.5q45 0 105.5 -10.5t115 -37t92 -74.5t37.5 -126q0 -123 -84 -183.5t-262 -60.5q-127 0 -213 41t-114 154h-410z" />
<glyph unicode="6" horiz-adv-x="1671" d="M109 707q0 -158 37.5 -294.5t126.5 -235.5t237.5 -156.5t370.5 -57.5q156 0 284.5 33t222 96.5t145.5 159.5t52 221q0 143 -62.5 233.5t-159.5 142.5t-215 71.5t-230 19.5q-117 0 -232 -34t-192 -107q2 92 21.5 164.5t63.5 124t114.5 78t170.5 26.5q45 0 90 -5t84 -20.5 t71 -45t50 -79.5h391q-12 123 -76.5 204t-158.5 128t-204 65.5t-214 18.5q-231 0 -384 -62.5t-243 -166t-125.5 -239.5t-35.5 -283zM528 455q0 111 79 171t233 60q106 0 173.5 -22.5t106.5 -56.5t53.5 -74.5t14.5 -79.5q0 -53 -23.5 -94.5t-64.5 -70t-97.5 -44t-121.5 -15.5 q-100 0 -168 19.5t-109 51.5t-58.5 73t-17.5 82z" />
<glyph unicode="7" horiz-adv-x="1554" d="M47 1143h1032q-129 -115 -260 -241t-240.5 -267t-188.5 -299t-105 -336h483q33 172 106.5 323.5t171 286.5t212 258t231.5 240v313h-1442v-278z" />
<glyph unicode="8" horiz-adv-x="1671" d="M86 422q0 -131 62.5 -219t167 -141.5t239.5 -76t281 -22.5q145 0 280 22.5t239.5 76t167 141.5t62.5 219q0 133 -79 222t-210 124v4q113 41 171.5 111.5t54.5 185.5q2 123 -64.5 198.5t-169 119t-223.5 57.5t-229 14q-109 0 -230 -14t-224 -57.5t-171 -119t-70 -198.5 q4 -115 62.5 -185.5t171.5 -111.5v-4q-131 -35 -210 -124t-79 -222zM496 436q0 53 24.5 92t69.5 63.5t106.5 37t137.5 12.5q154 0 248 -48t94 -157q0 -111 -94.5 -159t-247.5 -48q-76 0 -137.5 12.5t-106.5 37t-69.5 63.5t-24.5 94zM539 1034q0 74 69.5 116t225.5 42 q53 0 104 -8t93 -26.5t67.5 -48.5t25.5 -75q0 -35 -14 -65.5t-48 -53t-90.5 -36t-137.5 -13.5q-158 0 -226.5 46t-68.5 122z" />
<glyph unicode="9" horiz-adv-x="1671" d="M86 948q0 -143 62.5 -233t160 -142.5t215 -72t230.5 -19.5q117 0 231.5 34t192.5 108q-2 -92 -21.5 -165t-63.5 -124t-114 -78t-172 -27q-45 0 -90 5.5t-84 20.5t-71 45t-50 79h-391q12 -123 76.5 -204t159 -128t204 -65.5t213.5 -18.5q231 0 384 62.5t243 166t126 239.5 t36 284q0 158 -38 294t-127 235t-237.5 156.5t-369.5 57.5q-156 0 -285 -32.5t-222.5 -96t-145.5 -159t-52 -222.5zM483 969q0 53 23.5 94t64.5 69.5t97.5 44t122.5 15.5q100 0 167.5 -19.5t108.5 -51t58.5 -72.5t17.5 -82q0 -111 -79 -171.5t-233 -60.5q-106 0 -173.5 22.5 t-106.5 56.5t-53.5 75t-14.5 80z" />
<glyph unicode=":" horiz-adv-x="757" d="M180 0h398v348h-398v-348zM180 750h398v348h-398v-348z" />
<glyph unicode=";" horiz-adv-x="757" d="M180 0h185q-8 -102 -46 -153.5t-139 -77.5v-144q201 27 299.5 144.5t98.5 316.5v262h-398v-348zM180 750h398v348h-398v-348z" />
<glyph unicode="&#x37e;" horiz-adv-x="757" d="M180 0h185q-8 -102 -46 -153.5t-139 -77.5v-144q201 27 299.5 144.5t98.5 316.5v262h-398v-348zM180 750h398v348h-398v-348z" />
<glyph unicode="&#x3c;" horiz-adv-x="1228" d="M96 412l1037 -428v254l-695 280l695 281v254l-1037 -428v-213z" />
<glyph unicode="=" horiz-adv-x="1228" d="M96 168h1037v254h-1037v-254zM96 614h1037v254h-1037v-254z" />
<glyph unicode="&#x3e;" horiz-adv-x="1228" d="M96 -16l1037 428v213l-1037 428v-254l695 -281l-695 -280v-254z" />
<glyph unicode="?" horiz-adv-x="1554" d="M98 971h385q6 70 32 119t67 80.5t94 47t115 15.5q53 0 101 -12.5t85 -36t59.5 -57t22.5 -76.5q0 -61 -36 -102.5t-89 -73t-114.5 -62.5t-115 -75t-89 -107.5t-35.5 -159.5h360q8 55 50 94t99.5 72t122 66.5t118.5 78.5t90 107.5t36 152.5q0 111 -50 195t-142.5 139.5 t-221.5 83t-286 27.5q-119 0 -236 -27.5t-209 -89t-150.5 -160t-62.5 -239.5zM561 0h397v348h-397v-348z" />
<glyph unicode="@" horiz-adv-x="1638" d="M47 731q0 -168 64.5 -309t175 -243.5t259 -161t316.5 -58.5q203 0 368 85t275 243h-184q-86 -59 -198.5 -99.5t-254.5 -40.5q-127 0 -235.5 43t-188 120t-126 183.5t-46.5 233.5q0 121 42 228.5t119 187.5t183.5 126t237.5 46q117 0 219.5 -34t178 -96.5t119.5 -152.5 t44 -205q0 -84 -21.5 -151.5t-53 -114.5t-70.5 -71.5t-74 -24.5q-39 0 -39 43q0 10 2 29.5t10 54.5l121 520h-182l-27 -108q-47 72 -110.5 105.5t-141.5 33.5q-102 0 -184 -44t-140.5 -117t-90 -164t-31.5 -187q0 -82 26.5 -148.5t69.5 -111.5t98.5 -70t110.5 -25 q82 0 145.5 33t104.5 78h4q4 -55 39 -83t92 -28q49 0 136 31t172 101.5t147.5 184.5t62.5 279q0 143 -61.5 259t-163.5 199t-235.5 128t-274.5 45q-168 0 -315.5 -58.5t-257 -161.5t-173 -244.5t-63.5 -307.5zM608 664q0 45 18.5 92t50.5 86t75 63.5t94 24.5q66 0 113 -47 t47 -117q0 -47 -18.5 -96t-51.5 -89t-78 -66t-98 -26q-70 0 -111 51.5t-41 123.5z" />
<glyph unicode="A" horiz-adv-x="1708" d="M-29 0h428l119 301h672l119 -301h428l-643 1462h-480zM625 567l229 580l229 -580h-458z" />
<glyph unicode="B" horiz-adv-x="1820" d="M139 0h1043q166 0 270 42t162.5 106.5t79 142.5t20.5 151q0 59 -16.5 117.5t-49 108t-81.5 84t-113 45.5v4q51 16 88 48t60.5 72t35 85t11.5 88q0 102 -35 171.5t-91.5 113.5t-131 63.5t-154.5 19.5h-1098v-1462zM537 279v348h544q211 0 211 -176q0 -70 -39 -121 t-131 -51h-585zM537 881v315h497q123 0 164 -44t41 -114q0 -82 -40 -119.5t-109 -37.5h-553z" />
<glyph unicode="C" horiz-adv-x="1857" d="M78 731q0 -203 60.5 -349t172 -240.5t272 -138.5t359.5 -44q174 0 324.5 34t264.5 107.5t185.5 187t89.5 273.5h-432q-14 -86 -54 -147.5t-97.5 -100.5t-126 -57t-140.5 -18q-141 0 -230 49t-139 122.5t-68.5 160.5t-18.5 161t18.5 161t68.5 160.5t139 123t230 49.5 q78 0 148 -19.5t125 -59.5t93 -98.5t52 -138.5h428q-14 127 -59 219.5t-111.5 159t-149.5 108.5t-173 65.5t-184.5 32.5t-182.5 9q-199 0 -359.5 -44t-272 -138t-172 -240.5t-60.5 -349.5z" />
<glyph unicode="D" horiz-adv-x="1857" d="M139 0h946q172 0 300 52t214.5 148.5t128 230.5t41.5 300t-41.5 300t-129 230.5t-223.5 148.5t-324 52h-912v-1462zM537 279v905h405q115 0 193.5 -31t129 -87t73 -137t22.5 -184q0 -233 -91 -349.5t-290 -116.5h-442z" />
<glyph unicode="E" d="M139 0h1374v279h-976v335h919v267h-919v303h968v278h-1366v-1462z" />
<glyph unicode="F" horiz-adv-x="1478" d="M139 0h398v586h852v278h-852v320h909v278h-1307v-1462z" />
<glyph unicode="G" horiz-adv-x="1933" d="M78 731q0 -203 60.5 -349t172 -240.5t272 -138.5t359.5 -44q193 0 351.5 49t262.5 162l54 -170h200v815h-745v-254h354q-18 -90 -57 -152.5t-95.5 -100.5t-127 -54t-152.5 -16q-135 0 -228 45t-150.5 116.5t-83 158.5t-25.5 173t25.5 173t83 159t150.5 117t228 45 q53 0 110.5 -11.5t107.5 -39t91 -73.5t64 -118h442q-27 152 -107.5 251t-197.5 159.5t-260 85t-295 24.5q-207 0 -367.5 -57t-271 -159.5t-168 -244t-57.5 -311.5z" />
<glyph unicode="H" horiz-adv-x="1896" d="M139 0h398v635h823v-635h397v1462h-397v-549h-823v549h-398v-1462z" />
<glyph unicode="I" horiz-adv-x="675" d="M139 0h398v1462h-398v-1462z" />
<glyph unicode="J" horiz-adv-x="1402" d="M18 463q0 -156 54.5 -254t145.5 -153.5t210 -76t246 -20.5q145 0 244.5 27.5t165 75t101.5 108.5t54 129t21.5 137.5t3.5 132.5v893h-398v-942q0 -63 -8 -117.5t-32.5 -94.5t-70.5 -61.5t-124 -21.5q-100 0 -157.5 61.5t-57.5 166.5v102h-398v-92z" />
<glyph unicode="K" horiz-adv-x="1781" d="M139 0h398v434l231 199l498 -633h536l-723 874l672 588h-534l-680 -628v628h-398v-1462z" />
<glyph unicode="L" horiz-adv-x="1478" d="M139 0h1288v291h-890v1171h-398v-1462z" />
<glyph unicode="M" horiz-adv-x="2314" d="M139 0h385v1171h4l463 -1171h332l463 1171h4v-1171h385v1462h-584l-434 -1052l-434 1052h-584v-1462z" />
<glyph unicode="N" horiz-adv-x="1896" d="M139 0h385v1020h4l797 -1020h432v1462h-385v-1020h-4l-768 1020h-461v-1462z" />
<glyph unicode="O" horiz-adv-x="1933" d="M57 731q0 -76 12.5 -163t48.5 -173t99.5 -164.5t164.5 -139t244.5 -96.5t340.5 -36t340 36t244.5 96.5t165 139t99 164.5t48 173t12.5 163t-12.5 163t-48 173t-99 165t-165 139.5t-245 96t-339.5 35.5q-197 0 -340.5 -35.5t-244.5 -96t-164.5 -139.5t-99.5 -165 t-48.5 -173t-12.5 -163zM479 731q0 86 25.5 173t83 159t150.5 117t229 45q135 0 228 -45t150.5 -117t83 -159t25.5 -173t-25.5 -173t-83 -158.5t-150.5 -116.5t-228 -45t-228.5 45t-151 116.5t-83 158.5t-25.5 173z" />
<glyph unicode="P" horiz-adv-x="1705" d="M139 0h398v522h616q242 0 363.5 130t121.5 366q0 74 -22.5 152.5t-79.5 143t-157.5 106.5t-256.5 42h-983v-1462zM537 788v408h462q43 0 84 -5t73 -26.5t52.5 -62.5t20.5 -113q0 -74 -24.5 -114.5t-62.5 -59t-85 -23t-94 -4.5h-426z" />
<glyph unicode="Q" horiz-adv-x="1933" d="M57 731q0 -76 12.5 -163t48.5 -173t99.5 -164.5t164.5 -139t244.5 -96.5t340.5 -36q244 0 415 59l279 -245l182 200l-205 181q74 61 120 133.5t73 148.5t36 152t9 143q0 76 -12.5 163t-48 173t-99 165t-165 139.5t-245 96t-339.5 35.5q-197 0 -340.5 -35.5t-244.5 -96 t-164.5 -139.5t-99.5 -165t-48.5 -173t-12.5 -163zM479 731q0 86 25.5 173t83 159t150.5 117t229 45q135 0 228 -45t150.5 -117t83 -159t25.5 -173q0 -84 -23.5 -168t-80.5 -155l-172 151l-183 -201l117 -102q-68 -18 -145 -18q-135 0 -228.5 45t-151 116.5t-83 158.5 t-25.5 173z" />
<glyph unicode="R" horiz-adv-x="1744" d="M139 0h398v537h493q47 0 85 -11.5t66.5 -40t44 -78t15.5 -126.5q0 -57 1 -99.5t5 -74t11.5 -57t21.5 -50.5h434q-27 29 -41 71t-22.5 88t-10.5 89t-2 69q0 53 -7 118t-28.5 122t-60.5 99t-104 53v4q125 45 181 131t56 221q0 55 -16.5 125t-67.5 130t-144 101t-245 41 h-1063v-1462zM537 815v369h505q37 0 74 -8.5t67.5 -29t50 -55t19.5 -90.5q0 -51 -17 -86.5t-45 -57t-61.5 -32t-66.5 -10.5h-526z" />
<glyph unicode="S" horiz-adv-x="1669" d="M43 461q2 -115 38 -196t98.5 -137t143 -89t172 -51.5t187.5 -23.5t184 -5q215 0 361.5 39t234.5 105.5t126 155.5t38 192q0 100 -36 170.5t-98 117.5t-148.5 76t-186.5 45l-498 80q-78 12 -122.5 45t-44.5 92q0 74 73.5 123t196.5 49q59 0 120.5 -6t113 -27.5t88 -63.5 t44.5 -114h441q-10 156 -90 248t-195 140.5t-246 62.5t-243 14q-172 0 -307.5 -25.5t-227.5 -81t-141 -142.5t-49 -210q0 -113 42 -185.5t112.5 -118.5t160.5 -70.5t184 -38.5l363 -56q119 -18 183.5 -50.5t64.5 -116.5q0 -96 -86 -139.5t-228 -43.5q-63 0 -129.5 8.5 t-121 34t-89 71.5t-37.5 122h-446z" />
<glyph unicode="T" horiz-adv-x="1478" d="M-2 1184h543v-1184h397v1184h543v278h-1483v-278z" />
<glyph unicode="U" horiz-adv-x="1781" d="M123 524q0 -41 5 -98t27.5 -120.5t70.5 -125t133 -111t215.5 -80t316.5 -30.5t316 30.5t215 80t133.5 111t71 125t27.5 120.5t5 98v938h-397v-839q0 -53 -6.5 -121t-42 -126.5t-110.5 -98t-212 -39.5t-212 39.5t-109.5 98t-42 126t-7.5 121.5v839h-397v-938z" />
<glyph unicode="V" horiz-adv-x="1630" d="M-45 1462l649 -1462h422l649 1462h-436l-424 -1114l-424 1114h-436z" />
<glyph unicode="W" horiz-adv-x="2351" d="M-6 1462l463 -1462h409l308 1040h4l307 -1040h409l463 1462h-397l-283 -1065h-4l-299 1065h-397l-299 -1065h-4l-283 1065h-397z" />
<glyph unicode="X" horiz-adv-x="1630" d="M-35 0h494l356 494l356 -494h494l-621 754l570 708h-477l-322 -454l-321 454h-478l570 -708z" />
<glyph unicode="Y" d="M-49 1462l647 -952v-510h397v510l647 952h-466l-379 -637l-379 637h-467z" />
<glyph unicode="Z" horiz-adv-x="1554" d="M33 0h1489v279h-967l967 929v254h-1424v-278h901l-966 -930v-254z" />
<glyph unicode="[" horiz-adv-x="909" d="M166 -389h676v254h-328v1343h328v254h-676v-1851z" />
<glyph unicode="\" horiz-adv-x="872" d="M-4 1503l604 -1544h277l-607 1544h-274z" />
<glyph unicode="]" horiz-adv-x="909" d="M68 -135v-254h675v1851h-675v-254h327v-1343h-327z" />
<glyph unicode="^" horiz-adv-x="1228" d="M115 633h254l245 510l246 -510h254l-383 788h-233z" />
<glyph unicode="_" horiz-adv-x="1024" d="M0 -154v-102h1024v102h-1024z" />
<glyph unicode="`" horiz-adv-x="532" d="M-137 1526l295 -291h327l-182 291h-440z" />
<glyph unicode="a" horiz-adv-x="1517" d="M57 315q0 -96 36 -163.5t100.5 -110.5t154.5 -62.5t197 -19.5q61 0 132 7t140.5 25.5t133 49.5t108.5 76q2 -29 8 -58.5t16 -58.5h361q-18 41 -29.5 95.5t-11.5 125.5v545q0 78 -25.5 145.5t-94.5 117.5t-190.5 80t-316.5 30q-111 0 -220.5 -11.5t-199.5 -50.5 t-151.5 -113.5t-77.5 -201.5h348q18 57 44 90t59.5 49.5t78.5 20.5t103 4q158 0 220 -33t62 -98q0 -66 -31.5 -87.5t-115.5 -27.5l-383 -27q-82 -6 -164 -21.5t-146.5 -52t-104.5 -100.5t-40 -164zM442 326q0 74 47.5 104.5t143.5 38.5l209 18q53 4 107.5 13.5t105.5 34.5 v-91q0 -70 -35 -121t-90.5 -84.5t-124 -50t-135.5 -16.5q-102 0 -165 40t-63 114z" />
<glyph unicode="b" d="M123 0h348v137h4q51 -55 100.5 -90t99.5 -54.5t101 -26.5t109 -7q133 0 249.5 36t202.5 108.5t135.5 181t49.5 252.5q0 133 -47.5 242.5t-129 186t-194.5 118.5t-242 42q-154 0 -261 -45t-161 -118h-4v524h-360v-1487zM471 543q0 78 27.5 137t73.5 99t107.5 60.5 t129.5 20.5t130 -20.5t108.5 -60.5t74 -99t27.5 -137t-27.5 -137.5t-74 -99.5t-108.5 -60.5t-130 -20.5t-129.5 20.5t-107.5 60.5t-73.5 99.5t-27.5 137.5z" />
<glyph unicode="c" horiz-adv-x="1517" d="M72 549q0 -156 50 -267.5t141 -183t219 -105.5t284 -34q135 0 252 19.5t209 72.5t154.5 146.5t86.5 238.5h-372q-14 -104 -96 -163.5t-203 -59.5q-168 0 -260.5 87t-92.5 249t92.5 249t260.5 87q109 0 187.5 -42t111.5 -151h372q-25 135 -94 222t-162.5 137.5t-202 69 t-212.5 18.5q-162 0 -296 -34t-229.5 -105.5t-147.5 -183t-52 -267.5z" />
<glyph unicode="d" d="M72 537q0 -143 47 -252t130 -180.5t194.5 -108.5t240.5 -37q123 0 234.5 36t199.5 142h4v-137h348v1487h-360v-524h-4q-53 74 -160.5 118.5t-261.5 44.5q-129 0 -241.5 -42t-194.5 -118.5t-129 -186t-47 -242.5zM444 543q0 78 28 137t74 99t108.5 60.5t129.5 20.5 q68 0 129.5 -20.5t107.5 -60.5t73.5 -99t27.5 -137t-27.5 -137.5t-73.5 -99.5t-107.5 -60.5t-129.5 -20.5t-130 20.5t-108 60.5t-74 99.5t-28 137.5z" />
<glyph unicode="e" horiz-adv-x="1552" d="M61 549q0 -156 52.5 -267.5t147.5 -183t229.5 -105.5t295.5 -34q248 0 427.5 87t256.5 282h-385q-78 -143 -299 -144q-92 0 -158.5 27t-109.5 66.5t-63.5 86t-20.5 85.5v4h1057v32q0 311 -174 482.5t-531 171.5q-162 0 -296 -34t-229 -105.5t-147.5 -183t-52.5 -267.5z M434 666v4q0 10 13.5 49t51.5 82t105.5 77.5t173.5 34.5q98 0 164 -29.5t104.5 -69.5t55 -81t16.5 -63v-4h-684z" />
<glyph unicode="f" horiz-adv-x="872" d="M12 856h228v-856h360v856h289v242h-289v67q0 39 8 61.5t23.5 34t35 14.5t44.5 3q47 0 91 -1t91 -3v225q-66 2 -128.5 3t-98.5 1q-125 0 -208 -13t-131 -51t-67.5 -106.5t-19.5 -179.5v-55h-228v-242z" />
<glyph unicode="g" d="M72 578q0 -106 36.5 -205t113.5 -175.5t195 -122.5t279 -46q137 0 249 37.5t190 123.5v-88q0 -100 -27 -161.5t-73 -95t-105.5 -45t-126.5 -11.5q-156 0 -220.5 35t-80.5 102h-385q14 -125 82.5 -196.5t166 -108.5t211 -47t214.5 -10q172 0 304 28.5t221 91t134 163 t45 241.5v1010h-348v-133h-4q-72 88 -184.5 124.5t-233.5 36.5q-172 0 -296 -44t-203 -118.5t-116.5 -173.5t-37.5 -212zM444 571q0 94 32 153.5t81 92.5t110.5 44t120.5 11t121 -11t112 -44t82 -92t32 -154q0 -94 -32 -153.5t-82 -92t-111.5 -44t-121.5 -11.5 q-59 0 -120.5 11.5t-110.5 44t-81 92t-32 153.5z" />
<glyph unicode="h" horiz-adv-x="1517" d="M123 0h360v530q0 88 24.5 148.5t66.5 98.5t98.5 54.5t120.5 16.5q242 0 241 -225v-623h361v731q0 121 -47.5 198t-118 121t-153.5 60t-152 16q-80 0 -151 -16t-127 -43t-97 -60.5t-62 -68.5h-4v549h-360v-1487z" />
<glyph unicode="i" horiz-adv-x="606" d="M123 0h360v1098h-360v-1098zM123 1233h360v254h-360v-254z" />
<glyph unicode="j" horiz-adv-x="606" d="M-100 -133v-266q43 -2 87 -5.5t97 -3.5q135 0 215 28t121 82t52 131t11 175v1090h-360v-1061q0 -51 -4 -85t-18.5 -54.5t-40 -29.5t-68.5 -9q-16 0 -39.5 2t-52.5 6zM123 1233h360v254h-360v-254z" />
<glyph unicode="k" horiz-adv-x="1478" d="M123 0h360v315l176 142l359 -457h477l-555 680l522 418h-501l-478 -410v799h-360v-1487z" />
<glyph unicode="l" horiz-adv-x="606" d="M123 0h360v1487h-360v-1487z" />
<glyph unicode="m" horiz-adv-x="2314" d="M123 0h360v594q0 66 21.5 113t59.5 78.5t88 47t108 15.5q37 0 75.5 -8.5t70.5 -30t51.5 -58t19.5 -92.5v-659h360v594q0 66 21.5 113t58.5 78.5t87 47t106 15.5q39 0 79 -8.5t71.5 -30t51 -58t19.5 -92.5v-659h360v743q0 109 -36.5 182.5t-98 117.5t-139.5 63.5 t-162 19.5q-152 0 -264.5 -54t-187.5 -152q-41 94 -131.5 150t-247.5 56q-80 0 -151 -16t-129 -43t-101 -60.5t-68 -68.5h-4v160h-348v-1098z" />
<glyph unicode="n" horiz-adv-x="1517" d="M123 0h360v530q0 88 24.5 148.5t66.5 98.5t98.5 54.5t120.5 16.5q242 0 241 -225v-623h361v731q0 121 -47.5 198t-118 121t-153.5 60t-152 16q-80 0 -151 -16t-129 -43t-101 -60.5t-68 -68.5h-4v160h-348v-1098z" />
<glyph unicode="o" d="M72 549q0 -156 52 -267.5t147.5 -183t229.5 -105.5t296 -34q164 0 297 34t228 105.5t147.5 183t52.5 267.5t-52.5 267.5t-147.5 183t-228 105.5t-297 34q-162 0 -296 -34t-229.5 -105.5t-147.5 -183t-52 -267.5zM444 549q0 162 92.5 249t260.5 87t260 -87t92 -249 t-92 -249t-260 -87t-260.5 87t-92.5 249z" />
<glyph unicode="p" d="M123 -408h360v531h4q53 -74 161 -119t261 -45q129 0 242 42t194.5 119t129 186.5t47.5 242.5q0 145 -49.5 252.5t-135.5 180.5t-202.5 108.5t-249.5 35.5q-57 0 -108.5 -7t-101.5 -26.5t-99.5 -54t-100.5 -90.5h-4v150h-348v-1506zM471 543q0 78 27.5 137t73.5 99 t107.5 60.5t129.5 20.5t130 -20.5t108.5 -60.5t74 -99t27.5 -137t-27.5 -137.5t-74 -99.5t-108.5 -60.5t-130 -20.5t-129.5 20.5t-107.5 60.5t-73.5 99.5t-27.5 137.5z" />
<glyph unicode="q" d="M72 549q0 -133 47 -242.5t129 -186.5t194.5 -119t241.5 -42q154 0 261.5 45t160.5 119h4v-531h360v1506h-348v-150h-4q-51 55 -100 90t-99.5 54.5t-101.5 26.5t-108 7q-133 0 -250 -35.5t-203 -108.5t-135 -180.5t-49 -252.5zM444 543q0 78 28 137t74 99t108.5 60.5 t129.5 20.5q68 0 129.5 -20.5t107.5 -60.5t73.5 -99t27.5 -137t-27.5 -137.5t-73.5 -99.5t-107.5 -60.5t-129.5 -20.5t-130 20.5t-108 60.5t-74 99.5t-28 137.5z" />
<glyph unicode="r" horiz-adv-x="1062" d="M123 0h360v473q0 160 88 249t275 89q51 0 100 -9t98 -24v338q-31 6 -65.5 8t-65.5 2q-76 0 -136 -14t-110.5 -44t-96.5 -76t-95 -109h-4v215h-348v-1098z" />
<glyph unicode="s" horiz-adv-x="1441" d="M59 340q14 -197 173 -289t473 -92q117 0 237.5 12.5t219 51t159.5 111.5t61 196q0 72 -24.5 128t-80.5 98t-149.5 69.5t-230.5 42.5l-250 26q-57 6 -93 15.5t-56.5 22.5t-26.5 29.5t-6 35.5q0 41 23.5 64.5t59.5 34.5t77 14t75 3q39 0 79 -7t74 -23.5t58.5 -44 t32.5 -70.5h397q-8 78 -39.5 144.5t-104.5 117.5t-193.5 80t-311.5 29q-113 0 -220 -15.5t-191 -57.5t-136.5 -113.5t-52.5 -182.5q0 -78 24.5 -132t70.5 -90t113 -56.5t153 -32.5l327 -45q66 -8 106 -18.5t62.5 -23t29.5 -29.5t7 -40q0 -59 -68.5 -89t-191.5 -30 q-139 0 -197.5 43t-70.5 113h-398z" />
<glyph unicode="t" horiz-adv-x="909" d="M12 856h228v-555q0 -74 10 -134.5t49 -103.5t112.5 -65.5t202.5 -22.5q31 0 69 2.5t77 5.5t75.5 6t61.5 7v242q-43 -4 -86 -6.5t-90 -2.5q-72 0 -96.5 25t-24.5 90v512h291v242h-291v340h-360v-340h-228v-242z" />
<glyph unicode="u" horiz-adv-x="1517" d="M123 354q0 -121 47 -197.5t117.5 -120.5t153.5 -60.5t153 -16.5q80 0 150.5 16.5t129 43t101.5 60.5t67 68h5v-147h348v1098h-361v-549q0 -154 -78.5 -232.5t-226.5 -78.5q-246 0 -246 225v635h-360v-744z" />
<glyph unicode="v" horiz-adv-x="1368" d="M-25 1098l504 -1098h410l504 1098h-410l-299 -770l-299 770h-410z" />
<glyph unicode="w" horiz-adv-x="2162" d="M0 1098l410 -1098h432l237 709h4l238 -709h432l410 1098h-398l-252 -750h-4l-254 750h-348l-254 -750h-4l-252 750h-397z" />
<glyph unicode="x" horiz-adv-x="1478" d="M-6 0h461l278 362l283 -362h469l-504 569l465 529h-449l-260 -336l-252 336h-452l461 -529z" />
<glyph unicode="y" horiz-adv-x="1327" d="M-33 1098l516 -1059l-37 -80q-31 -57 -67.5 -85t-102.5 -28q-39 0 -77.5 2t-77.5 7v-254q63 -4 126.5 -6.5t127.5 -2.5q76 0 133 9.5t102 35t81 69.5t69 114l600 1278h-385l-303 -725l-314 725h-391z" />
<glyph unicode="z" horiz-adv-x="1327" d="M53 0h1221v266h-719l694 606v226h-1157v-267h656l-695 -606v-225z" />
<glyph unicode="{" horiz-adv-x="909" d="M78 449q80 0 135 -53.5t55 -131.5v-377q0 -141 80 -208.5t213 -67.5h248v225h-82q-68 0 -89.5 45t-21.5 105v307q0 104 -49 165.5t-153 76.5v4q92 12 147 73.5t55 153.5v321q0 29 4.5 56.5t16.5 48t33.5 33t56.5 12.5h82v225h-248q-143 0 -218 -71.5t-75 -204.5v-391 q0 -37 -16 -69t-42 -54.5t-60.5 -34.5t-71.5 -12v-176z" />
<glyph unicode="|" horiz-adv-x="454" d="M100 -41h254v1544h-254v-1544z" />
<glyph unicode="}" horiz-adv-x="909" d="M100 -164v-225h248q143 0 218 71.5t75 204.5v392q0 37 16.5 68.5t42 54t60.5 35t71 12.5v176q-80 0 -135 53t-55 131v377q0 141 -80 208.5t-213 67.5h-248v-225h82q68 0 89.5 -45t21.5 -105v-307q0 -104 49 -165.5t154 -75.5v-4q-92 -12 -147.5 -74t-55.5 -154v-321 q0 -29 -4 -56.5t-16.5 -48t-34 -33t-56.5 -12.5h-82z" />
<glyph unicode="~" horiz-adv-x="1228" d="M141 539l74 -217q8 18 26.5 42.5t44 46t54.5 36t59 14.5q51 0 97.5 -21.5t97.5 -48t108.5 -48t133.5 -21.5q90 0 150.5 49t100.5 127l-73 217q-8 -18 -26.5 -43t-44 -46.5t-54.5 -36t-60 -14.5q-51 0 -97 21.5t-97 48.5t-108.5 48.5t-133.5 21.5q-90 0 -150.5 -49 t-101.5 -127z" />
<glyph unicode="&#xa1;" horiz-adv-x="757" d="M180 -365h398l-62 990h-274zM180 750h398v348h-398v-348z" />
<glyph unicode="&#xa2;" horiz-adv-x="1671" d="M137 549q0 -145 46 -253t131 -179.5t204 -110.5t264 -47v-217h127v217q117 2 220.5 25.5t185.5 78t139 145.5t80 228h-373q-12 -92 -79.5 -150.5t-172.5 -72.5v672q92 -8 158 -52.5t94 -140.5h373q-25 129 -87.5 213t-148.5 135.5t-187 73t-202 25.5v174h-127v-174 q-145 -8 -264 -47t-204 -111t-131 -179.5t-46 -252.5zM510 549q0 141 70.5 228t201.5 108v-672q-131 18 -201.5 106.5t-70.5 229.5z" />
<glyph unicode="&#xa3;" horiz-adv-x="1671" d="M106 219l150 -260q74 45 141.5 63.5t153.5 18.5t158.5 -12.5t142.5 -28.5t137.5 -28.5t140.5 -12.5q125 0 231.5 33t203.5 104l-107 283q-27 -23 -63.5 -42.5t-79.5 -32.5t-90 -21.5t-95 -8.5q-59 -2 -113 5.5t-105.5 17.5t-97.5 17.5t-89 4.5q-55 0 -109.5 -13 t-105.5 -34v4q76 59 119 129t43 162q0 16 -1 29.5t-3 26.5h336v188h-365q-41 117 -41 168q0 41 15.5 78t49 64.5t85 45t122.5 17.5q117 0 182.5 -57.5t69.5 -178.5h410v58q0 70 -28.5 149.5t-101.5 148t-199 113.5t-322 45q-123 0 -247 -18.5t-222.5 -67.5t-161 -137 t-62.5 -229q0 -55 15.5 -102.5t38.5 -96.5h-117v-188h170q6 -27 11 -55.5t5 -57.5q0 -53 -16 -96t-44 -77t-65 -62.5t-80 -55.5z" />
<glyph unicode="&#xa4;" horiz-adv-x="1671" d="M266 287l146 -146l120 121q66 -47 143 -70.5t161 -23.5t160.5 23.5t142.5 70.5l121 -121l145 146l-121 121q47 66 70.5 142.5t23.5 160.5t-23.5 161.5t-68.5 143.5l119 119l-145 145l-119 -119q-66 43 -142.5 67.5t-162.5 24.5q-84 0 -162 -23.5t-144 -68.5l-118 119 l-146 -145l119 -119q-45 -66 -68.5 -143.5t-23.5 -161.5q0 -86 24.5 -164t67.5 -141zM547 711q0 66 21.5 121t60.5 95t91 62.5t116 22.5q63 0 116.5 -22.5t91 -62.5t59 -95.5t21.5 -120.5q0 -66 -21.5 -121t-59 -95t-91 -62.5t-116.5 -22.5t-115.5 22.5t-91.5 62.5t-60.5 95 t-21.5 121z" />
<glyph unicode="&#xa5;" horiz-adv-x="1671" d="M20 1421l426 -622h-225v-189h354l56 -80v-84h-410v-188h410v-258h397v258h410v188h-410v84l55 80h355v189h-224l437 622h-453l-360 -594h-4l-353 594h-461z" />
<glyph unicode="&#xa6;" horiz-adv-x="454" d="M100 -41h254v563h-254v-563zM100 940h254v563h-254v-563z" />
<glyph unicode="&#xa7;" horiz-adv-x="1671" d="M76 621q0 -94 40 -165t116.5 -125.5t189.5 -94t256 -72.5q150 -35 235.5 -59.5t129.5 -46t55.5 -44t11.5 -55.5q0 -53 -58.5 -89t-181.5 -36q-53 0 -106 6t-98 25.5t-76 57.5t-37 102h-385q10 -121 66.5 -204t146.5 -134.5t210 -73t255 -21.5q160 0 280.5 30t202.5 82 t124 124t42 156q0 78 -23.5 125t-74.5 90q98 35 148 121t50 200q0 129 -110.5 228.5t-321.5 152.5l-411 107q-92 23 -132 45t-40 75q0 55 52 94.5t163 39.5q94 0 148 -16.5t82 -41t35 -55.5t9 -59h385q-14 135 -80.5 217t-163 125t-211 57t-229.5 14q-98 0 -197.5 -18.5 t-181.5 -62.5t-133 -115.5t-51 -178.5q0 -57 17.5 -107t64.5 -87q-106 -35 -159.5 -118.5t-53.5 -194.5zM412 655q0 41 25.5 77t60.5 59l563 -170q33 -10 67.5 -22.5t64.5 -31t48.5 -45t18.5 -65.5q0 -43 -23 -76t-51 -62l-527 154q-37 10 -79.5 23.5t-80.5 33t-62.5 50 t-24.5 75.5z" />
<glyph unicode="&#xa8;" horiz-adv-x="532" d="M-207 1235h361v242h-361v-242zM379 1235h360v242h-360v-242z" />
<glyph unicode="&#xa9;" horiz-adv-x="1638" d="M47 731q0 -160 60.5 -300t166 -245.5t245.5 -166t300 -60.5t300.5 60.5t245.5 166t165.5 245.5t60.5 300t-60.5 300t-165.5 245.5t-245.5 166t-300.5 60.5t-300 -60.5t-245.5 -166t-166 -245.5t-60.5 -300zM272 731q0 131 40 236.5t112 180.5t172 115t223 40t223.5 -40 t172 -115t111.5 -180.5t40 -236.5t-40 -236.5t-111.5 -180t-172 -114.5t-223.5 -40t-223 40t-172 114.5t-112 180t-40 236.5zM414 737q0 -96 29.5 -179t86 -144.5t137.5 -96t183 -34.5q66 0 129 21.5t114.5 63.5t86 102t47.5 138h-213q-8 -63 -59.5 -100t-123.5 -37 q-49 0 -89 21.5t-68.5 58.5t-44 85t-15.5 101q0 113 57.5 190t162.5 77q74 0 119.5 -36t62.5 -96h201q-23 158 -128.5 239t-244.5 81q-102 0 -182 -35t-135.5 -95.5t-84 -143.5t-28.5 -181z" />
<glyph unicode="&#xaa;" horiz-adv-x="987" d="M43 965q0 -57 23.5 -97.5t65.5 -66t100.5 -36.5t127.5 -11q39 0 83 4t88 16t82 32.5t65 53.5h4q0 -29 5 -47t15 -35h242q-16 25 -21 44.5t-5 43.5v381q0 43 -16.5 82t-61.5 68.5t-124 47t-206 17.5q-70 0 -140.5 -6t-131 -29.5t-102.5 -70.5t-52 -127h242 q27 55 67.5 68.5t106.5 13.5q96 0 136 -18.5t40 -53.5q0 -31 -20.5 -42t-67.5 -15l-250 -19q-53 -4 -105.5 -13t-94.5 -30.5t-68.5 -58.5t-26.5 -96zM297 983q0 33 32.5 49.5t80.5 20.5l104 10q35 4 76 11t74 24v-45q0 -37 -23 -64.5t-56.5 -46t-74.5 -28t-78 -9.5 q-57 0 -96 21.5t-39 56.5z" />
<glyph unicode="&#xab;" horiz-adv-x="1251" d="M170 424l397 -291v273l-245 180l245 180v272l-397 -290v-324zM664 424l397 -291v273l-246 180l246 180v272l-397 -290v-324z" />
<glyph unicode="&#xac;" horiz-adv-x="1228" d="M96 614h783v-413h254v667h-1037v-254z" />
<glyph unicode="&#xad;" horiz-adv-x="985" d="M127 446h731v279h-731v-279z" />
<glyph unicode="&#xae;" horiz-adv-x="1638" d="M47 731q0 -160 60.5 -300t166 -245.5t245.5 -166t300 -60.5t300.5 60.5t245.5 166t165.5 245.5t60.5 300t-60.5 300t-165.5 245.5t-245.5 166t-300.5 60.5t-300 -60.5t-245.5 -166t-166 -245.5t-60.5 -300zM272 731q0 131 40 236.5t112 180.5t172 115t223 40t223.5 -40 t172 -115t111.5 -180.5t40 -236.5t-40 -236.5t-111.5 -180t-172 -114.5t-223.5 -40t-223 40t-172 114.5t-112 180t-40 236.5zM512 307h188v336h72l191 -336h200l-211 344q92 10 153.5 69.5t61.5 168.5q0 129 -79.5 196.5t-245.5 67.5h-330v-846zM700 795v206h121 q25 0 53.5 -3t51 -13t38 -30.5t15.5 -55.5q0 -68 -39 -86t-100 -18h-140z" />
<glyph unicode="&#xaf;" horiz-adv-x="532" d="M-227 1278h987v213h-987v-213z" />
<glyph unicode="&#xb0;" horiz-adv-x="819" d="M106 1159q0 -63 24 -118.5t65 -96.5t96 -64.5t119 -23.5q63 0 118.5 23.5t96.5 64.5t64.5 96.5t23.5 118.5t-23.5 118.5t-64.5 96.5t-96.5 64.5t-118.5 23.5t-118.5 -23.5t-96.5 -64.5t-65 -96.5t-24 -118.5zM258 1159q0 63 44 107.5t108 44.5q63 0 107 -44t44 -108 q0 -63 -44 -107t-107 -44t-107.5 44t-44.5 107z" />
<glyph unicode="&#xb1;" horiz-adv-x="1228" d="M96 0h1037v254h-1037v-254zM96 561h391v-221h254v221h392v254h-392v221h-254v-221h-391v-254z" />
<glyph unicode="&#xb2;" horiz-adv-x="1085" d="M51 586h983v200h-651q23 23 58.5 41.5t78.5 34t89 27.5t89 22q160 41 248 105.5t88 175.5q0 47 -23.5 95t-77.5 87t-141 63.5t-217 24.5q-100 0 -189 -16t-155.5 -54t-107.5 -102.5t-45 -163.5h303q6 45 26.5 76t48 49.5t59.5 26.5t58 8q70 0 114 -32.5t44 -86.5 q0 -49 -48 -75.5t-122 -48t-160 -48t-161.5 -75t-129 -128t-59.5 -206.5z" />
<glyph unicode="&#xb3;" horiz-adv-x="1085" d="M51 862q4 -84 39 -141t96.5 -93t146.5 -51.5t189 -15.5q154 0 253 24.5t156.5 64.5t80 92.5t22.5 105.5q0 74 -51 128t-137 68v5q70 14 109.5 56t39.5 109q0 117 -102 182.5t-330 65.5q-86 0 -168 -11t-148.5 -41t-111.5 -82t-55 -134h285q14 41 64 66.5t103 25.5 q76 0 118 -23.5t42 -62.5q0 -35 -27.5 -56.5t-91.5 -21.5h-174v-176h160q72 0 122 -22.5t50 -77.5q0 -47 -51 -78t-135 -31q-33 0 -69 6.5t-65.5 20.5t-49 38.5t-19.5 59.5h-291z" />
<glyph unicode="&#xb4;" horiz-adv-x="532" d="M47 1235h328l295 291h-441z" />
<glyph unicode="&#xb5;" horiz-adv-x="1517" d="M123 -408h360v426q31 -27 85.5 -43t111.5 -16q35 0 84 8t100 30.5t98.5 58.5t79.5 91h5v-147h348v1098h-361v-549q0 -154 -78.5 -232.5t-226.5 -78.5q-246 0 -246 225v635h-360v-1506z" />
<glyph unicode="&#x3bc;" horiz-adv-x="1517" d="M123 -408h360v426q31 -27 85.5 -43t111.5 -16q35 0 84 8t100 30.5t98.5 58.5t79.5 91h5v-147h348v1098h-361v-549q0 -154 -78.5 -232.5t-226.5 -78.5q-246 0 -246 225v635h-360v-1506z" />
<glyph unicode="&#xb6;" horiz-adv-x="1269" d="M2 1049q0 -195 120 -297.5t349 -102.5v-1016h266v1629h189v-1629h266v1829h-678q-115 0 -209 -18.5t-161.5 -65.5t-104.5 -126.5t-37 -202.5z" />
<glyph unicode="&#xb7;" horiz-adv-x="757" d="M168 563q0 -43 17.5 -81t46 -67.5t66.5 -46t81 -16.5t81 16.5t66.5 46t46 67.5t17.5 81t-17.5 81t-46 67.5t-66.5 46t-81 16.5t-81 -16.5t-66.5 -46t-46 -67.5t-17.5 -81z" />
<glyph unicode="&#x22c5;" horiz-adv-x="757" d="M168 563q0 -43 17.5 -81t46 -67.5t66.5 -46t81 -16.5t81 16.5t66.5 46t46 67.5t17.5 81t-17.5 81t-46 67.5t-66.5 46t-81 16.5t-81 -16.5t-66.5 -46t-46 -67.5t-17.5 -81z" />
<glyph unicode="&#xb8;" horiz-adv-x="532" d="M-10 -408q25 -8 95.5 -18t166.5 -10q43 0 94 7t95 27.5t73 56.5t29 93q0 43 -16.5 74t-44 50t-62.5 29.5t-72 10.5q-23 0 -45 -2t-45 -6l61 96h-129l-110 -170l41 -37q23 8 47.5 13.5t48.5 5.5q72 0 72 -64q0 -37 -26.5 -53.5t-72.5 -16.5q-41 0 -81.5 4.5t-83.5 16.5z " />
<glyph unicode="&#xb9;" horiz-adv-x="739" d="M37 1102h274v-516h279v852h-225q-20 -49 -46 -77t-64 -43t-91 -20.5t-127 -7.5v-188z" />
<glyph unicode="&#xba;" horiz-adv-x="1036" d="M47 1108q0 -92 34 -159.5t95.5 -110.5t148.5 -63.5t193 -20.5t193.5 20.5t149 63.5t95 110.5t33.5 159.5t-33.5 159.5t-95 110.5t-148.5 63.5t-194 20.5q-106 0 -193 -20.5t-148.5 -63.5t-95.5 -110.5t-34 -159.5zM301 1110q0 88 58.5 138t158.5 50t158.5 -50t58.5 -138 q0 -90 -58.5 -141t-158.5 -51t-158.5 51t-58.5 141z" />
<glyph unicode="&#xbb;" horiz-adv-x="1251" d="M190 133l398 291v324l-398 290v-272l246 -180l-246 -180v-273zM684 133l397 291v324l-397 290v-272l246 -180l-246 -180v-273z" />
<glyph unicode="&#xbc;" horiz-adv-x="2502" d="M115 1102h274v-516h279v852h-226q-20 -49 -45.5 -77t-63.5 -43t-91.5 -20.5t-126.5 -7.5v-188zM590 -41h194l742 1503h-195zM1341 166h568v-166h254v166h168v176h-168v510h-305l-517 -518v-168zM1608 342l301 334v-334h-301z" />
<glyph unicode="&#xbd;" horiz-adv-x="2502" d="M115 1102h274v-516h279v852h-226q-20 -49 -45.5 -77t-63.5 -43t-91.5 -20.5t-126.5 -7.5v-188zM590 -41h194l742 1503h-195zM1348 0h983v201h-652q23 23 59 41t79 33.5t89 27.5t89 23q160 41 248 105.5t88 174.5q0 47 -23.5 95.5t-78 87t-141.5 63.5t-216 25 q-100 0 -189.5 -16.5t-156 -54.5t-107.5 -102.5t-45 -162.5h303q6 45 26.5 75.5t48.5 49t59.5 26.5t58.5 8q70 0 114 -32.5t44 -85.5q0 -49 -48.5 -76t-122 -48.5t-159.5 -48t-162 -74.5t-129 -128t-59 -207z" />
<glyph unicode="&#xbe;" horiz-adv-x="2502" d="M115 862q4 -84 38.5 -141t96 -93t146.5 -51.5t190 -15.5q154 0 253 24.5t156.5 64.5t80 92.5t22.5 105.5q0 74 -51.5 128t-137.5 68v5q70 14 110 56t40 109q0 117 -102.5 182.5t-329.5 65.5q-86 0 -168 -11t-148.5 -41t-111.5 -82t-56 -134h285q14 41 64.5 66.5 t103.5 25.5q76 0 118 -23.5t42 -62.5q0 -35 -28 -56.5t-91 -21.5h-174v-176h160q72 0 122 -22.5t50 -77.5q0 -47 -51.5 -78t-135.5 -31q-33 0 -68.5 6.5t-65.5 20.5t-49 38.5t-19 59.5h-291zM825 -41h195l741 1503h-194zM1341 166h568v-166h254v166h168v176h-168v510h-305 l-517 -518v-168zM1608 342l301 334v-334h-301z" />
<glyph unicode="&#xbf;" horiz-adv-x="1554" d="M98 55q0 -111 50.5 -194.5t142.5 -139t221 -83t287 -27.5q119 0 235.5 27.5t208.5 89t150.5 160t62.5 239.5h-385q-6 -70 -31.5 -119t-66.5 -80.5t-94.5 -47t-114.5 -15.5q-53 0 -101.5 12t-85 36t-59 57.5t-22.5 76.5q0 63 35.5 103t89 72t115 62.5t114.5 74.5t89 107.5 t36 160.5h-361q-8 -55 -50 -94t-99 -72t-121.5 -67t-119 -79t-90.5 -107.5t-36 -152.5zM596 750h397v348h-397v-348z" />
<glyph unicode="&#xc0;" horiz-adv-x="1708" d="M-29 0h428l119 301h672l119 -301h428l-643 1462h-480zM625 567l229 580l229 -580h-458zM451 1850l295 -291h327l-182 291h-440z" />
<glyph unicode="&#xc1;" horiz-adv-x="1708" d="M-29 0h428l119 301h672l119 -301h428l-643 1462h-480zM625 567l229 580l229 -580h-458zM635 1559h328l295 291h-441z" />
<glyph unicode="&#xc2;" horiz-adv-x="1708" d="M-29 0h428l119 301h672l119 -301h428l-643 1462h-480zM625 567l229 580l229 -580h-458zM322 1559h360l158 166l162 -166h385l-295 291h-475z" />
<glyph unicode="&#xc3;" horiz-adv-x="1708" d="M-29 0h428l119 301h672l119 -301h428l-643 1462h-480zM625 567l229 580l229 -580h-458zM350 1567h177q12 37 35.5 65.5t64.5 28.5q29 0 89 -16t129 -34.5t136.5 -35t110.5 -16.5q66 0 113 21.5t78.5 60.5t49 90t25.5 109h-168q-6 -43 -32.5 -61.5t-67.5 -18.5 q-45 0 -106.5 14t-123 30.5t-119 31t-98.5 14.5q-119 0 -188.5 -80t-104.5 -203z" />
<glyph unicode="&#xc4;" horiz-adv-x="1708" d="M-29 0h428l119 301h672l119 -301h428l-643 1462h-480zM625 567l229 580l229 -580h-458zM381 1559h361v242h-361v-242zM967 1559h360v242h-360v-242z" />
<glyph unicode="&#xc5;" horiz-adv-x="1708" d="M-29 0h428l119 301h672l119 -301h428l-643 1462h-480zM625 567l229 580l229 -580h-458zM611 1755q0 -53 20 -100t56 -83t83 -56.5t101 -20.5q53 0 101 20.5t83 56.5t55.5 83t20.5 100t-20.5 101.5t-55.5 83t-83 55t-101 20.5t-100.5 -20.5t-83.5 -55t-56 -83t-20 -101.5z M738 1755q0 55 38.5 94t94.5 39q55 0 94 -39t39 -94t-39 -94t-94 -39t-94 39t-39 94z" />
<glyph unicode="&#xc6;" horiz-adv-x="2351" d="M-68 0h433l184 340h530v-340h1192v279h-831v335h794v267h-794v303h823v278h-1522zM670 594l313 602h96v-602h-409z" />
<glyph unicode="&#xc7;" horiz-adv-x="1857" d="M78 731q0 -188 52 -327.5t149.5 -233.5t236.5 -144.5t315 -60.5l-88 -135l41 -37q23 8 47.5 13.5t49.5 5.5q72 0 71 -64q0 -37 -26.5 -53.5t-71.5 -16.5q-41 0 -82 4.5t-84 16.5l-35 -107q25 -8 95.5 -18t166.5 -10q43 0 94.5 7t95.5 27.5t72.5 56.5t28.5 93q0 43 -16 74 t-44 50t-62.5 29.5t-71.5 10.5q-23 0 -45.5 -2t-44.5 -6l34 55q172 2 318.5 37t259.5 107.5t183.5 186t88.5 271.5h-432q-14 -86 -54 -147.5t-97.5 -100.5t-126 -57t-140.5 -18q-141 0 -230 49t-139 122.5t-68.5 160.5t-18.5 161t18.5 161t68.5 160.5t139 123t230 49.5 q78 0 148 -19.5t125 -59.5t93 -98.5t52 -138.5h428q-14 127 -59 219.5t-111.5 159t-149.5 108.5t-173 65.5t-184.5 32.5t-182.5 9q-199 0 -359.5 -44t-272 -138t-172 -240.5t-60.5 -349.5z" />
<glyph unicode="&#xc8;" d="M139 0h1374v279h-976v335h919v267h-919v303h968v278h-1366v-1462zM393 1850l295 -291h327l-182 291h-440z" />
<glyph unicode="&#xc9;" d="M139 0h1374v279h-976v335h919v267h-919v303h968v278h-1366v-1462zM577 1559h328l295 291h-441z" />
<glyph unicode="&#xca;" d="M139 0h1374v279h-976v335h919v267h-919v303h968v278h-1366v-1462zM264 1559h360l158 166l162 -166h385l-295 291h-475z" />
<glyph unicode="&#xcb;" d="M139 0h1374v279h-976v335h919v267h-919v303h968v278h-1366v-1462zM323 1559h361v242h-361v-242zM909 1559h360v242h-360v-242z" />
<glyph unicode="&#xcc;" horiz-adv-x="675" d="M139 0h398v1462h-398v-1462zM-65 1850l295 -291h327l-182 291h-440z" />
<glyph unicode="&#xcd;" horiz-adv-x="675" d="M139 0h398v1462h-398v-1462zM119 1559h328l295 291h-441z" />
<glyph unicode="&#xce;" horiz-adv-x="675" d="M139 0h398v1462h-398v-1462zM-194 1559h360l158 166l162 -166h385l-295 291h-475z" />
<glyph unicode="&#xcf;" horiz-adv-x="675" d="M139 0h398v1462h-398v-1462zM-135 1559h361v242h-361v-242zM451 1559h360v242h-360v-242z" />
<glyph unicode="&#xd0;" horiz-adv-x="1857" d="M0 627h139v-627h946q172 0 300 52t214.5 148.5t128 230.5t41.5 300t-41.5 300t-129 230.5t-223.5 148.5t-324 52h-912v-581h-139v-254zM537 279v348h340v254h-340v303h405q115 0 193.5 -31t129 -87t73 -137t22.5 -184q0 -233 -91 -349.5t-290 -116.5h-442z" />
<glyph unicode="&#xd1;" horiz-adv-x="1896" d="M139 0h385v1020h4l797 -1020h432v1462h-385v-1020h-4l-768 1020h-461v-1462zM444 1567h177q12 37 35.5 65.5t64.5 28.5q29 0 89 -16t129 -34.5t136.5 -35t110.5 -16.5q66 0 113 21.5t78.5 60.5t49 90t25.5 109h-168q-6 -43 -32.5 -61.5t-67.5 -18.5q-45 0 -106.5 14 t-123 30.5t-119 31t-98.5 14.5q-119 0 -188.5 -80t-104.5 -203z" />
<glyph unicode="&#xd2;" horiz-adv-x="1933" d="M57 731q0 -76 12.5 -163t48.5 -173t99.5 -164.5t164.5 -139t244.5 -96.5t340.5 -36t340 36t244.5 96.5t165 139t99 164.5t48 173t12.5 163t-12.5 163t-48 173t-99 165t-165 139.5t-245 96t-339.5 35.5q-197 0 -340.5 -35.5t-244.5 -96t-164.5 -139.5t-99.5 -165 t-48.5 -173t-12.5 -163zM479 731q0 86 25.5 173t83 159t150.5 117t229 45q135 0 228 -45t150.5 -117t83 -159t25.5 -173t-25.5 -173t-83 -158.5t-150.5 -116.5t-228 -45t-228.5 45t-151 116.5t-83 158.5t-25.5 173zM563 1850l295 -291h327l-182 291h-440z" />
<glyph unicode="&#xd3;" horiz-adv-x="1933" d="M57 731q0 -76 12.5 -163t48.5 -173t99.5 -164.5t164.5 -139t244.5 -96.5t340.5 -36t340 36t244.5 96.5t165 139t99 164.5t48 173t12.5 163t-12.5 163t-48 173t-99 165t-165 139.5t-245 96t-339.5 35.5q-197 0 -340.5 -35.5t-244.5 -96t-164.5 -139.5t-99.5 -165 t-48.5 -173t-12.5 -163zM479 731q0 86 25.5 173t83 159t150.5 117t229 45q135 0 228 -45t150.5 -117t83 -159t25.5 -173t-25.5 -173t-83 -158.5t-150.5 -116.5t-228 -45t-228.5 45t-151 116.5t-83 158.5t-25.5 173zM747 1559h328l295 291h-441z" />
<glyph unicode="&#xd4;" horiz-adv-x="1933" d="M57 731q0 -76 12.5 -163t48.5 -173t99.5 -164.5t164.5 -139t244.5 -96.5t340.5 -36t340 36t244.5 96.5t165 139t99 164.5t48 173t12.5 163t-12.5 163t-48 173t-99 165t-165 139.5t-245 96t-339.5 35.5q-197 0 -340.5 -35.5t-244.5 -96t-164.5 -139.5t-99.5 -165 t-48.5 -173t-12.5 -163zM479 731q0 86 25.5 173t83 159t150.5 117t229 45q135 0 228 -45t150.5 -117t83 -159t25.5 -173t-25.5 -173t-83 -158.5t-150.5 -116.5t-228 -45t-228.5 45t-151 116.5t-83 158.5t-25.5 173zM434 1559h360l158 166l162 -166h385l-295 291h-475z" />
<glyph unicode="&#xd5;" horiz-adv-x="1933" d="M57 731q0 -76 12.5 -163t48.5 -173t99.5 -164.5t164.5 -139t244.5 -96.5t340.5 -36t340 36t244.5 96.5t165 139t99 164.5t48 173t12.5 163t-12.5 163t-48 173t-99 165t-165 139.5t-245 96t-339.5 35.5q-197 0 -340.5 -35.5t-244.5 -96t-164.5 -139.5t-99.5 -165 t-48.5 -173t-12.5 -163zM479 731q0 86 25.5 173t83 159t150.5 117t229 45q135 0 228 -45t150.5 -117t83 -159t25.5 -173t-25.5 -173t-83 -158.5t-150.5 -116.5t-228 -45t-228.5 45t-151 116.5t-83 158.5t-25.5 173zM462 1567h177q12 37 35.5 65.5t64.5 28.5q29 0 89 -16 t129 -34.5t136.5 -35t110.5 -16.5q66 0 113 21.5t78.5 60.5t49 90t25.5 109h-168q-6 -43 -32.5 -61.5t-67.5 -18.5q-45 0 -106.5 14t-123 30.5t-119 31t-98.5 14.5q-119 0 -188.5 -80t-104.5 -203z" />
<glyph unicode="&#xd6;" horiz-adv-x="1933" d="M57 731q0 -76 12.5 -163t48.5 -173t99.5 -164.5t164.5 -139t244.5 -96.5t340.5 -36t340 36t244.5 96.5t165 139t99 164.5t48 173t12.5 163t-12.5 163t-48 173t-99 165t-165 139.5t-245 96t-339.5 35.5q-197 0 -340.5 -35.5t-244.5 -96t-164.5 -139.5t-99.5 -165 t-48.5 -173t-12.5 -163zM479 731q0 86 25.5 173t83 159t150.5 117t229 45q135 0 228 -45t150.5 -117t83 -159t25.5 -173t-25.5 -173t-83 -158.5t-150.5 -116.5t-228 -45t-228.5 45t-151 116.5t-83 158.5t-25.5 173zM493 1559h361v242h-361v-242zM1079 1559h360v242h-360 v-242z" />
<glyph unicode="&#xd7;" horiz-adv-x="1228" d="M121 201l176 -176l317 319l318 -319l176 176l-320 317l320 318l-176 176l-318 -320l-317 320l-176 -176l319 -318z" />
<glyph unicode="&#xd8;" horiz-adv-x="1933" d="M57 43l88 -104l205 174q102 -70 252 -112t365 -42q197 0 340 36t244.5 96.5t165 139t99 164.5t48 173t12.5 163q0 61 -8 130t-28.5 137.5t-57.5 136t-94 127.5l188 159l-88 105l-205 -176q-104 72 -254.5 112.5t-361.5 40.5q-197 0 -340.5 -35.5t-244.5 -96 t-164.5 -139.5t-99.5 -165t-48.5 -173t-12.5 -163q0 -61 8.5 -128.5t29 -136.5t56 -136.5t93.5 -126.5zM479 731q0 86 25.5 173t83 159t150.5 117t229 45q113 0 195.5 -32t140.5 -83l-756 -647q-35 61 -51.5 130.5t-16.5 137.5zM631 354l755 647q35 -63 51.5 -132.5 t16.5 -137.5q0 -86 -25.5 -173t-83 -158.5t-150.5 -116.5t-228 -45q-113 0 -196 31.5t-140 84.5z" />
<glyph unicode="&#xd9;" horiz-adv-x="1781" d="M123 524q0 -41 5 -98t27.5 -120.5t70.5 -125t133 -111t215.5 -80t316.5 -30.5t316 30.5t215 80t133.5 111t71 125t27.5 120.5t5 98v938h-397v-839q0 -53 -6.5 -121t-42 -126.5t-110.5 -98t-212 -39.5t-212 39.5t-109.5 98t-42 126t-7.5 121.5v839h-397v-938zM488 1850 l295 -291h327l-182 291h-440z" />
<glyph unicode="&#xda;" horiz-adv-x="1781" d="M123 524q0 -41 5 -98t27.5 -120.5t70.5 -125t133 -111t215.5 -80t316.5 -30.5t316 30.5t215 80t133.5 111t71 125t27.5 120.5t5 98v938h-397v-839q0 -53 -6.5 -121t-42 -126.5t-110.5 -98t-212 -39.5t-212 39.5t-109.5 98t-42 126t-7.5 121.5v839h-397v-938zM672 1559 h328l295 291h-441z" />
<glyph unicode="&#xdb;" horiz-adv-x="1781" d="M123 524q0 -41 5 -98t27.5 -120.5t70.5 -125t133 -111t215.5 -80t316.5 -30.5t316 30.5t215 80t133.5 111t71 125t27.5 120.5t5 98v938h-397v-839q0 -53 -6.5 -121t-42 -126.5t-110.5 -98t-212 -39.5t-212 39.5t-109.5 98t-42 126t-7.5 121.5v839h-397v-938zM359 1559 h360l158 166l162 -166h385l-295 291h-475z" />
<glyph unicode="&#xdc;" horiz-adv-x="1781" d="M123 524q0 -41 5 -98t27.5 -120.5t70.5 -125t133 -111t215.5 -80t316.5 -30.5t316 30.5t215 80t133.5 111t71 125t27.5 120.5t5 98v938h-397v-839q0 -53 -6.5 -121t-42 -126.5t-110.5 -98t-212 -39.5t-212 39.5t-109.5 98t-42 126t-7.5 121.5v839h-397v-938zM418 1559 h361v242h-361v-242zM1004 1559h360v242h-360v-242z" />
<glyph unicode="&#xdd;" d="M-49 1462l647 -952v-510h397v510l647 952h-466l-379 -637l-379 637h-467zM577 1559h328l295 291h-441z" />
<glyph unicode="&#xde;" horiz-adv-x="1705" d="M139 0h398v262h616q242 0 363.5 130t121.5 366q0 72 -21.5 149.5t-76.5 142t-149.5 107.5t-237.5 43h-616v262h-398v-1462zM537 528v406h462q43 0 84 -5t73 -26.5t52.5 -61.5t20.5 -112q0 -74 -24.5 -115t-62.5 -59t-85 -22.5t-94 -4.5h-426z" />
<glyph unicode="&#xdf;" horiz-adv-x="1554" d="M123 0h360v956q0 76 14.5 131.5t48.5 91t90 53t142 17.5q106 0 176 -42t70 -130q0 -86 -62.5 -125t-173.5 -39h-122v-225h159q152 0 223.5 -51t71.5 -160q0 -72 -25.5 -118t-67.5 -71.5t-95 -35.5t-107 -10q-55 0 -102 4t-88 8v-254q61 -10 123.5 -17.5t124.5 -7.5 q129 0 240.5 26t193.5 83t129 148.5t47 220.5q0 168 -79 257t-208 121v5q29 6 65 25.5t66.5 51t51 78.5t20.5 109q0 119 -48 196.5t-132 123.5t-199 64.5t-248 18.5q-156 0 -278.5 -24.5t-207.5 -82t-129 -153.5t-44 -242v-1001z" />
<glyph unicode="&#xe0;" horiz-adv-x="1517" d="M57 315q0 -96 36 -163.5t100.5 -110.5t154.5 -62.5t197 -19.5q61 0 132 7t140.5 25.5t133 49.5t108.5 76q2 -29 8 -58.5t16 -58.5h361q-18 41 -29.5 95.5t-11.5 125.5v545q0 78 -25.5 145.5t-94.5 117.5t-190.5 80t-316.5 30q-111 0 -220.5 -11.5t-199.5 -50.5 t-151.5 -113.5t-77.5 -201.5h348q18 57 44 90t59.5 49.5t78.5 20.5t103 4q158 0 220 -33t62 -98q0 -66 -31.5 -87.5t-115.5 -27.5l-383 -27q-82 -6 -164 -21.5t-146.5 -52t-104.5 -100.5t-40 -164zM442 326q0 74 47.5 104.5t143.5 38.5l209 18q53 4 107.5 13.5t105.5 34.5 v-91q0 -70 -35 -121t-90.5 -84.5t-124 -50t-135.5 -16.5q-102 0 -165 40t-63 114zM357 1526l295 -291h327l-182 291h-440z" />
<glyph unicode="&#xe1;" horiz-adv-x="1517" d="M57 315q0 -96 36 -163.5t100.5 -110.5t154.5 -62.5t197 -19.5q61 0 132 7t140.5 25.5t133 49.5t108.5 76q2 -29 8 -58.5t16 -58.5h361q-18 41 -29.5 95.5t-11.5 125.5v545q0 78 -25.5 145.5t-94.5 117.5t-190.5 80t-316.5 30q-111 0 -220.5 -11.5t-199.5 -50.5 t-151.5 -113.5t-77.5 -201.5h348q18 57 44 90t59.5 49.5t78.5 20.5t103 4q158 0 220 -33t62 -98q0 -66 -31.5 -87.5t-115.5 -27.5l-383 -27q-82 -6 -164 -21.5t-146.5 -52t-104.5 -100.5t-40 -164zM442 326q0 74 47.5 104.5t143.5 38.5l209 18q53 4 107.5 13.5t105.5 34.5 v-91q0 -70 -35 -121t-90.5 -84.5t-124 -50t-135.5 -16.5q-102 0 -165 40t-63 114zM541 1235h328l295 291h-441z" />
<glyph unicode="&#xe2;" horiz-adv-x="1517" d="M57 315q0 -96 36 -163.5t100.5 -110.5t154.5 -62.5t197 -19.5q61 0 132 7t140.5 25.5t133 49.5t108.5 76q2 -29 8 -58.5t16 -58.5h361q-18 41 -29.5 95.5t-11.5 125.5v545q0 78 -25.5 145.5t-94.5 117.5t-190.5 80t-316.5 30q-111 0 -220.5 -11.5t-199.5 -50.5 t-151.5 -113.5t-77.5 -201.5h348q18 57 44 90t59.5 49.5t78.5 20.5t103 4q158 0 220 -33t62 -98q0 -66 -31.5 -87.5t-115.5 -27.5l-383 -27q-82 -6 -164 -21.5t-146.5 -52t-104.5 -100.5t-40 -164zM442 326q0 74 47.5 104.5t143.5 38.5l209 18q53 4 107.5 13.5t105.5 34.5 v-91q0 -70 -35 -121t-90.5 -84.5t-124 -50t-135.5 -16.5q-102 0 -165 40t-63 114zM228 1235h360l158 166l162 -166h385l-295 291h-475z" />
<glyph unicode="&#xe3;" horiz-adv-x="1517" d="M57 315q0 -96 36 -163.5t100.5 -110.5t154.5 -62.5t197 -19.5q61 0 132 7t140.5 25.5t133 49.5t108.5 76q2 -29 8 -58.5t16 -58.5h361q-18 41 -29.5 95.5t-11.5 125.5v545q0 78 -25.5 145.5t-94.5 117.5t-190.5 80t-316.5 30q-111 0 -220.5 -11.5t-199.5 -50.5 t-151.5 -113.5t-77.5 -201.5h348q18 57 44 90t59.5 49.5t78.5 20.5t103 4q158 0 220 -33t62 -98q0 -66 -31.5 -87.5t-115.5 -27.5l-383 -27q-82 -6 -164 -21.5t-146.5 -52t-104.5 -100.5t-40 -164zM442 326q0 74 47.5 104.5t143.5 38.5l209 18q53 4 107.5 13.5t105.5 34.5 v-91q0 -70 -35 -121t-90.5 -84.5t-124 -50t-135.5 -16.5q-102 0 -165 40t-63 114zM256 1243h177q12 37 35.5 65.5t64.5 28.5q29 0 89 -16t129 -34.5t136.5 -35t110.5 -16.5q66 0 113 21.5t78.5 60.5t49 90t25.5 109h-168q-6 -43 -32.5 -61.5t-67.5 -18.5q-45 0 -106.5 14 t-123 30.5t-119 31t-98.5 14.5q-119 0 -188.5 -80t-104.5 -203z" />
<glyph unicode="&#xe4;" horiz-adv-x="1517" d="M57 315q0 -96 36 -163.5t100.5 -110.5t154.5 -62.5t197 -19.5q61 0 132 7t140.5 25.5t133 49.5t108.5 76q2 -29 8 -58.5t16 -58.5h361q-18 41 -29.5 95.5t-11.5 125.5v545q0 78 -25.5 145.5t-94.5 117.5t-190.5 80t-316.5 30q-111 0 -220.5 -11.5t-199.5 -50.5 t-151.5 -113.5t-77.5 -201.5h348q18 57 44 90t59.5 49.5t78.5 20.5t103 4q158 0 220 -33t62 -98q0 -66 -31.5 -87.5t-115.5 -27.5l-383 -27q-82 -6 -164 -21.5t-146.5 -52t-104.5 -100.5t-40 -164zM442 326q0 74 47.5 104.5t143.5 38.5l209 18q53 4 107.5 13.5t105.5 34.5 v-91q0 -70 -35 -121t-90.5 -84.5t-124 -50t-135.5 -16.5q-102 0 -165 40t-63 114zM287 1235h361v242h-361v-242zM873 1235h360v242h-360v-242z" />
<glyph unicode="&#xe5;" horiz-adv-x="1517" d="M57 315q0 -96 36 -163.5t100.5 -110.5t154.5 -62.5t197 -19.5q61 0 132 7t140.5 25.5t133 49.5t108.5 76q2 -29 8 -58.5t16 -58.5h361q-18 41 -29.5 95.5t-11.5 125.5v545q0 78 -25.5 145.5t-94.5 117.5t-190.5 80t-316.5 30q-111 0 -220.5 -11.5t-199.5 -50.5 t-151.5 -113.5t-77.5 -201.5h348q18 57 44 90t59.5 49.5t78.5 20.5t103 4q158 0 220 -33t62 -98q0 -66 -31.5 -87.5t-115.5 -27.5l-383 -27q-82 -6 -164 -21.5t-146.5 -52t-104.5 -100.5t-40 -164zM442 326q0 74 47.5 104.5t143.5 38.5l209 18q53 4 107.5 13.5t105.5 34.5 v-91q0 -70 -35 -121t-90.5 -84.5t-124 -50t-135.5 -16.5q-102 0 -165 40t-63 114zM517 1452q0 -53 20 -100t56 -83t83 -56.5t101 -20.5q53 0 101 20.5t83 56.5t55.5 83t20.5 100t-20.5 101.5t-55.5 83t-83 55t-101 20.5t-100.5 -20.5t-83.5 -55t-56 -83t-20 -101.5z M644 1452q0 55 38.5 94t94.5 39q55 0 94 -39t39 -94t-39 -94t-94 -39t-94 39t-39 94z" />
<glyph unicode="&#xe6;" horiz-adv-x="2351" d="M61 313q0 -98 39 -165.5t104.5 -109.5t153.5 -60.5t189 -18.5q90 0 170 9t152.5 30.5t141 59.5t138.5 94q37 -39 81 -74t103.5 -61.5t138 -42t187.5 -15.5q215 0 370.5 80t245.5 278h-360q-53 -76 -111.5 -104.5t-152.5 -28.5q-152 0 -243 66.5t-95 202.5h973q4 27 4 51 v53q0 117 -44 222.5t-128 185t-205 127t-275 47.5q-147 0 -259.5 -42t-170.5 -102q-47 43 -104 71t-118.5 44t-123 22.5t-117.5 6.5q-281 0 -437 -89t-185 -296h348q12 47 30.5 77.5t50.5 49t79 25.5t114 7q53 0 100.5 -5t84.5 -20.5t58.5 -44t21.5 -77.5q0 -23 -5.5 -40 t-21.5 -29.5t-48 -19.5t-85 -11l-367 -25q-117 -8 -197.5 -34.5t-130 -68.5t-72 -99.5t-22.5 -125.5zM434 322q0 66 42 99.5t153 43.5q90 8 149.5 13t101.5 10.5t70.5 12.5t59.5 15v-53q0 -141 -97.5 -210t-253.5 -69q-33 0 -72.5 5.5t-73.5 19.5t-56.5 42t-22.5 71z M1313 653q23 131 102.5 195.5t210.5 64.5q129 0 212 -63.5t104 -196.5h-629z" />
<glyph unicode="&#xe7;" horiz-adv-x="1517" d="M72 549q0 -141 42 -246.5t118.5 -177.5t185 -111t241.5 -49l-86 -135l41 -37q23 8 47.5 13.5t49.5 5.5q72 0 71 -64q0 -37 -26.5 -53.5t-71.5 -16.5q-41 0 -82 4.5t-84 16.5l-35 -107q25 -8 95.5 -18t166.5 -10q43 0 94.5 7t95.5 27.5t72.5 56.5t28.5 93q0 43 -16 74 t-44 50t-62.5 29.5t-71.5 10.5q-23 0 -45.5 -2t-44.5 -6l34 55q131 2 245 22.5t203 75t149.5 145.5t84.5 234h-372q-14 -104 -96 -163.5t-203 -59.5q-168 0 -260.5 87t-92.5 249t92.5 249t260.5 87q109 0 187.5 -42t111.5 -151h372q-25 135 -94 222t-162.5 137.5t-202 69 t-212.5 18.5q-162 0 -296 -34t-229.5 -105.5t-147.5 -183t-52 -267.5z" />
<glyph unicode="&#xe8;" horiz-adv-x="1552" d="M61 549q0 -156 52.5 -267.5t147.5 -183t229.5 -105.5t295.5 -34q248 0 427.5 87t256.5 282h-385q-78 -143 -299 -144q-92 0 -158.5 27t-109.5 66.5t-63.5 86t-20.5 85.5v4h1057v32q0 311 -174 482.5t-531 171.5q-162 0 -296 -34t-229 -105.5t-147.5 -183t-52.5 -267.5z M434 666v4q0 10 13.5 49t51.5 82t105.5 77.5t173.5 34.5q98 0 164 -29.5t104.5 -69.5t55 -81t16.5 -63v-4h-684zM373 1526l295 -291h327l-182 291h-440z" />
<glyph unicode="&#xe9;" horiz-adv-x="1552" d="M61 549q0 -156 52.5 -267.5t147.5 -183t229.5 -105.5t295.5 -34q248 0 427.5 87t256.5 282h-385q-78 -143 -299 -144q-92 0 -158.5 27t-109.5 66.5t-63.5 86t-20.5 85.5v4h1057v32q0 311 -174 482.5t-531 171.5q-162 0 -296 -34t-229 -105.5t-147.5 -183t-52.5 -267.5z M434 666v4q0 10 13.5 49t51.5 82t105.5 77.5t173.5 34.5q98 0 164 -29.5t104.5 -69.5t55 -81t16.5 -63v-4h-684zM557 1235h328l295 291h-441z" />
<glyph unicode="&#xea;" horiz-adv-x="1552" d="M61 549q0 -156 52.5 -267.5t147.5 -183t229.5 -105.5t295.5 -34q248 0 427.5 87t256.5 282h-385q-78 -143 -299 -144q-92 0 -158.5 27t-109.5 66.5t-63.5 86t-20.5 85.5v4h1057v32q0 311 -174 482.5t-531 171.5q-162 0 -296 -34t-229 -105.5t-147.5 -183t-52.5 -267.5z M434 666v4q0 10 13.5 49t51.5 82t105.5 77.5t173.5 34.5q98 0 164 -29.5t104.5 -69.5t55 -81t16.5 -63v-4h-684zM244 1235h360l158 166l162 -166h385l-295 291h-475z" />
<glyph unicode="&#xeb;" horiz-adv-x="1552" d="M61 549q0 -156 52.5 -267.5t147.5 -183t229.5 -105.5t295.5 -34q248 0 427.5 87t256.5 282h-385q-78 -143 -299 -144q-92 0 -158.5 27t-109.5 66.5t-63.5 86t-20.5 85.5v4h1057v32q0 311 -174 482.5t-531 171.5q-162 0 -296 -34t-229 -105.5t-147.5 -183t-52.5 -267.5z M434 666v4q0 10 13.5 49t51.5 82t105.5 77.5t173.5 34.5q98 0 164 -29.5t104.5 -69.5t55 -81t16.5 -63v-4h-684zM303 1235h361v242h-361v-242zM889 1235h360v242h-360v-242z" />
<glyph unicode="&#xec;" horiz-adv-x="606" d="M123 0h360v1098h-360v-1098zM-100 1526l295 -291h327l-182 291h-440z" />
<glyph unicode="&#xed;" horiz-adv-x="606" d="M123 0h360v1098h-360v-1098zM84 1235h328l295 291h-441z" />
<glyph unicode="&#xee;" horiz-adv-x="606" d="M123 0h360v1098h-360v-1098zM-229 1235h360l158 166l162 -166h385l-295 291h-475z" />
<glyph unicode="&#xef;" horiz-adv-x="606" d="M123 0h360v1098h-360v-1098zM-170 1235h361v242h-361v-242zM416 1235h360v242h-360v-242z" />
<glyph unicode="&#xf0;" d="M72 528q0 -147 52 -254.5t147.5 -177t229.5 -103.5t296 -34q201 0 337 51t220 138.5t119.5 205t35.5 248.5q0 104 -27.5 208.5t-87 205t-155.5 194t-235 174.5l231 107l-137 84l-234 -107q-80 35 -171 64t-177 47l-201 -190q61 -14 117.5 -32t99.5 -38l-229 -107l127 -90 l264 121q104 -43 184 -104.5t160 -169.5h-4q-47 43 -131 73.5t-184 30.5q-119 0 -234.5 -34.5t-208 -102.5t-148.5 -170.5t-56 -237.5zM444 518q0 145 92.5 223t260.5 78t260 -77.5t92 -223.5q0 -139 -92 -222t-260 -83t-260.5 83t-92.5 222z" />
<glyph unicode="&#xf1;" horiz-adv-x="1517" d="M123 0h360v530q0 88 24.5 148.5t66.5 98.5t98.5 54.5t120.5 16.5q242 0 241 -225v-623h361v731q0 121 -47.5 198t-118 121t-153.5 60t-152 16q-80 0 -151 -16t-129 -43t-101 -60.5t-68 -68.5h-4v160h-348v-1098zM256 1243h177q12 37 35.5 65.5t64.5 28.5q29 0 89 -16 t129 -34.5t136.5 -35t110.5 -16.5q66 0 113 21.5t78.5 60.5t49 90t25.5 109h-168q-6 -43 -32.5 -61.5t-67.5 -18.5q-45 0 -106.5 14t-123 30.5t-119 31t-98.5 14.5q-119 0 -188.5 -80t-104.5 -203z" />
<glyph unicode="&#xf2;" d="M72 549q0 -156 52 -267.5t147.5 -183t229.5 -105.5t296 -34q164 0 297 34t228 105.5t147.5 183t52.5 267.5t-52.5 267.5t-147.5 183t-228 105.5t-297 34q-162 0 -296 -34t-229.5 -105.5t-147.5 -183t-52 -267.5zM444 549q0 162 92.5 249t260.5 87t260 -87t92 -249 t-92 -249t-260 -87t-260.5 87t-92.5 249zM393 1526l295 -291h327l-182 291h-440z" />
<glyph unicode="&#xf3;" d="M72 549q0 -156 52 -267.5t147.5 -183t229.5 -105.5t296 -34q164 0 297 34t228 105.5t147.5 183t52.5 267.5t-52.5 267.5t-147.5 183t-228 105.5t-297 34q-162 0 -296 -34t-229.5 -105.5t-147.5 -183t-52 -267.5zM444 549q0 162 92.5 249t260.5 87t260 -87t92 -249 t-92 -249t-260 -87t-260.5 87t-92.5 249zM577 1235h328l295 291h-441z" />
<glyph unicode="&#xf4;" d="M72 549q0 -156 52 -267.5t147.5 -183t229.5 -105.5t296 -34q164 0 297 34t228 105.5t147.5 183t52.5 267.5t-52.5 267.5t-147.5 183t-228 105.5t-297 34q-162 0 -296 -34t-229.5 -105.5t-147.5 -183t-52 -267.5zM444 549q0 162 92.5 249t260.5 87t260 -87t92 -249 t-92 -249t-260 -87t-260.5 87t-92.5 249zM264 1235h360l158 166l162 -166h385l-295 291h-475z" />
<glyph unicode="&#xf5;" d="M72 549q0 -156 52 -267.5t147.5 -183t229.5 -105.5t296 -34q164 0 297 34t228 105.5t147.5 183t52.5 267.5t-52.5 267.5t-147.5 183t-228 105.5t-297 34q-162 0 -296 -34t-229.5 -105.5t-147.5 -183t-52 -267.5zM444 549q0 162 92.5 249t260.5 87t260 -87t92 -249 t-92 -249t-260 -87t-260.5 87t-92.5 249zM292 1243h177q12 37 35.5 65.5t64.5 28.5q29 0 89 -16t129 -34.5t136.5 -35t110.5 -16.5q66 0 113 21.5t78.5 60.5t49 90t25.5 109h-168q-6 -43 -32.5 -61.5t-67.5 -18.5q-45 0 -106.5 14t-123 30.5t-119 31t-98.5 14.5 q-119 0 -188.5 -80t-104.5 -203z" />
<glyph unicode="&#xf6;" d="M72 549q0 -156 52 -267.5t147.5 -183t229.5 -105.5t296 -34q164 0 297 34t228 105.5t147.5 183t52.5 267.5t-52.5 267.5t-147.5 183t-228 105.5t-297 34q-162 0 -296 -34t-229.5 -105.5t-147.5 -183t-52 -267.5zM444 549q0 162 92.5 249t260.5 87t260 -87t92 -249 t-92 -249t-260 -87t-260.5 87t-92.5 249zM323 1235h361v242h-361v-242zM909 1235h360v242h-360v-242z" />
<glyph unicode="&#xf7;" horiz-adv-x="1228" d="M96 391h1037v254h-1037v-254zM416 84q0 -84 57 -141.5t141 -57.5t141.5 57.5t57.5 141.5t-57.5 141.5t-141.5 57.5t-141 -57.5t-57 -141.5zM416 952q0 -84 57 -141t141 -57t141.5 57t57.5 141t-57.5 141.5t-141.5 57.5t-141 -57.5t-57 -141.5z" />
<glyph unicode="&#xf8;" d="M59 20l74 -92l178 146q94 -59 216 -87t270 -28q164 0 297 34t228 105.5t147.5 183t52.5 267.5q0 129 -36 227t-104 168l152 125l-78 92l-170 -139q-92 59 -216 88t-273 29q-162 0 -296 -34t-229.5 -105.5t-147.5 -183t-52 -267.5q0 -133 37.5 -232.5t105.5 -169.5z M444 549q0 162 92.5 249t260.5 87q150 0 237 -70l-547 -446q-43 74 -43 180zM563 279l547 444q39 -72 39 -174q0 -162 -92 -249t-260 -87q-150 0 -234 66z" />
<glyph unicode="&#xf9;" horiz-adv-x="1517" d="M123 354q0 -121 47 -197.5t117.5 -120.5t153.5 -60.5t153 -16.5q80 0 150.5 16.5t129 43t101.5 60.5t67 68h5v-147h348v1098h-361v-549q0 -154 -78.5 -232.5t-226.5 -78.5q-246 0 -246 225v635h-360v-744zM357 1526l295 -291h327l-182 291h-440z" />
<glyph unicode="&#xfa;" horiz-adv-x="1517" d="M123 354q0 -121 47 -197.5t117.5 -120.5t153.5 -60.5t153 -16.5q80 0 150.5 16.5t129 43t101.5 60.5t67 68h5v-147h348v1098h-361v-549q0 -154 -78.5 -232.5t-226.5 -78.5q-246 0 -246 225v635h-360v-744zM541 1235h328l295 291h-441z" />
<glyph unicode="&#xfb;" horiz-adv-x="1517" d="M123 354q0 -121 47 -197.5t117.5 -120.5t153.5 -60.5t153 -16.5q80 0 150.5 16.5t129 43t101.5 60.5t67 68h5v-147h348v1098h-361v-549q0 -154 -78.5 -232.5t-226.5 -78.5q-246 0 -246 225v635h-360v-744zM228 1235h360l158 166l162 -166h385l-295 291h-475z" />
<glyph unicode="&#xfc;" horiz-adv-x="1517" d="M123 354q0 -121 47 -197.5t117.5 -120.5t153.5 -60.5t153 -16.5q80 0 150.5 16.5t129 43t101.5 60.5t67 68h5v-147h348v1098h-361v-549q0 -154 -78.5 -232.5t-226.5 -78.5q-246 0 -246 225v635h-360v-744zM287 1235h361v242h-361v-242zM873 1235h360v242h-360v-242z" />
<glyph unicode="&#xfd;" horiz-adv-x="1327" d="M-33 1098l516 -1059l-37 -80q-31 -57 -67.5 -85t-102.5 -28q-39 0 -77.5 2t-77.5 7v-254q63 -4 126.5 -6.5t127.5 -2.5q76 0 133 9.5t102 35t81 69.5t69 114l600 1278h-385l-303 -725l-314 725h-391zM444 1235h328l295 291h-441z" />
<glyph unicode="&#xfe;" d="M123 -408h360v531h4q53 -74 161 -119t261 -45q129 0 242 42t194.5 119t129 186.5t47.5 242.5q0 145 -49.5 252.5t-135.5 180.5t-202.5 108.5t-249.5 35.5q-262 0 -398 -178h-4v539h-360v-1895zM471 543q0 78 27.5 137t73.5 99t107.5 60.5t129.5 20.5t130 -20.5 t108.5 -60.5t74 -99t27.5 -137t-27.5 -137.5t-74 -99.5t-108.5 -60.5t-130 -20.5t-129.5 20.5t-107.5 60.5t-73.5 99.5t-27.5 137.5z" />
<glyph unicode="&#xff;" horiz-adv-x="1327" d="M-33 1098l516 -1059l-37 -80q-31 -57 -67.5 -85t-102.5 -28q-39 0 -77.5 2t-77.5 7v-254q63 -4 126.5 -6.5t127.5 -2.5q76 0 133 9.5t102 35t81 69.5t69 114l600 1278h-385l-303 -725l-314 725h-391zM190 1235h361v242h-361v-242zM776 1235h360v242h-360v-242z" />
<glyph unicode="&#x131;" horiz-adv-x="606" d="M123 0h360v1098h-360v-1098z" />
<glyph unicode="&#x152;" horiz-adv-x="2390" d="M72 723q0 -160 46 -299t134 -242.5t214 -163t286 -59.5q137 0 234 38t192 128v-125h1132v279h-784v335h747v267h-747v303h774v278h-1122v-114q-88 92 -196 123.5t-230 31.5q-160 0 -286 -60.5t-214 -166t-134 -247.5t-46 -306zM469 729q0 117 27.5 208t77 155.5t118 98.5 t150.5 34q88 0 151.5 -28t104.5 -64.5t60.5 -72.5t19.5 -52v-535q0 -20 -21.5 -60t-62.5 -79t-102.5 -67.5t-141.5 -28.5q-70 0 -138.5 24.5t-121.5 80.5t-87 150.5t-34 235.5z" />
<glyph unicode="&#x153;" horiz-adv-x="2351" d="M61 541q0 -111 33 -214.5t107.5 -184.5t198.5 -131t307 -52q135 0 259 39t220 145q94 -104 214 -144t259 -40q215 0 370.5 80t245.5 278h-360q-53 -76 -111.5 -104.5t-152.5 -28.5q-59 0 -113.5 13.5t-96.5 45t-70 83t-34 127.5h949q4 27 4 51v53q0 117 -44 222.5 t-128 185t-205 127t-275 47.5q-80 0 -148.5 -15.5t-124.5 -41t-99 -58.5t-74 -66q-100 94 -220 137.5t-251 43.5q-190 0 -317.5 -56.5t-203 -143.5t-107.5 -192.5t-32 -205.5zM422 545q0 70 17.5 131t55 107t98 74t144.5 28q82 0 140.5 -28t96.5 -74t55.5 -107.5 t17.5 -130.5q0 -70 -17.5 -133.5t-55.5 -109.5t-96.5 -73.5t-140.5 -27.5q-84 0 -144.5 27.5t-98 73.5t-55 109.5t-17.5 133.5zM1337 653q29 121 102.5 190.5t196.5 69.5q125 0 203 -65.5t103 -194.5h-605z" />
<glyph unicode="&#x178;" d="M-49 1462l647 -952v-510h397v510l647 952h-466l-379 -637l-379 637h-467zM323 1559h361v242h-361v-242zM909 1559h360v242h-360v-242z" />
<glyph unicode="&#x2c6;" horiz-adv-x="532" d="M-266 1235h360l158 166l162 -166h385l-295 291h-475z" />
<glyph unicode="&#x2da;" horiz-adv-x="532" d="M23 1452q0 -53 20 -100t56 -83t83 -56.5t101 -20.5q53 0 101 20.5t83 56.5t55.5 83t20.5 100t-20.5 101.5t-55.5 83t-83 55t-101 20.5t-100.5 -20.5t-83.5 -55t-56 -83t-20 -101.5zM150 1452q0 55 38.5 94t94.5 39q55 0 94 -39t39 -94t-39 -94t-94 -39t-94 39t-39 94z " />
<glyph unicode="&#x2dc;" horiz-adv-x="532" d="M-238 1243h177q12 37 35.5 65.5t64.5 28.5q29 0 89 -16t129 -34.5t136.5 -35t110.5 -16.5q66 0 113 21.5t78.5 60.5t49 90t25.5 109h-168q-6 -43 -32.5 -61.5t-67.5 -18.5q-45 0 -106.5 14t-123 30.5t-119 31t-98.5 14.5q-119 0 -188.5 -80t-104.5 -203z" />
<glyph unicode="&#x2000;" horiz-adv-x="1007" />
<glyph unicode="&#x2001;" horiz-adv-x="2015" />
<glyph unicode="&#x2002;" horiz-adv-x="1007" />
<glyph unicode="&#x2003;" horiz-adv-x="2015" />
<glyph unicode="&#x2004;" horiz-adv-x="671" />
<glyph unicode="&#x2005;" horiz-adv-x="503" />
<glyph unicode="&#x2006;" horiz-adv-x="335" />
<glyph unicode="&#x2007;" horiz-adv-x="335" />
<glyph unicode="&#x2008;" horiz-adv-x="251" />
<glyph unicode="&#x2009;" horiz-adv-x="401" />
<glyph unicode="&#x200a;" horiz-adv-x="110" />
<glyph unicode="&#x2010;" horiz-adv-x="985" d="M127 446h731v279h-731v-279z" />
<glyph unicode="&#x2011;" horiz-adv-x="985" d="M127 446h731v279h-731v-279z" />
<glyph unicode="&#x2012;" horiz-adv-x="985" d="M127 446h731v279h-731v-279z" />
<glyph unicode="&#x2013;" horiz-adv-x="1024" d="M0 459h1024v254h-1024v-254z" />
<glyph unicode="&#x2014;" horiz-adv-x="2048" d="M0 459h2048v254h-2048v-254z" />
<glyph unicode="&#x2018;" horiz-adv-x="757" d="M180 739h398v348h-185q8 102 46 153.5t139 78.5v143q-201 -27 -299.5 -144.5t-98.5 -316.5v-262z" />
<glyph unicode="&#x2019;" horiz-adv-x="757" d="M180 739q201 27 299.5 144.5t98.5 316.5v262h-398v-348h185q-4 -51 -14.5 -89t-32 -64.5t-55.5 -45t-83 -32.5v-144z" />
<glyph unicode="&#x201a;" horiz-adv-x="757" d="M180 0h185q-8 -102 -46 -153.5t-139 -77.5v-144q201 27 299.5 144.5t98.5 316.5v262h-398v-348z" />
<glyph unicode="&#x201c;" horiz-adv-x="1212" d="M123 739h397v348h-184q8 102 46 153.5t138 78.5v143q-201 -27 -299 -144.5t-98 -316.5v-262zM692 739h398v348h-185q8 102 46 153.5t139 78.5v143q-201 -27 -299.5 -144.5t-98.5 -316.5v-262z" />
<glyph unicode="&#x201d;" horiz-adv-x="1212" d="M123 739q201 27 299 144.5t98 316.5v262h-397v-348h184q-4 -51 -14 -89t-31.5 -64.5t-55.5 -45t-83 -32.5v-144zM692 739q201 27 299.5 144.5t98.5 316.5v262h-398v-348h185q-4 -51 -14.5 -89t-32 -64.5t-55.5 -45t-83 -32.5v-144z" />
<glyph unicode="&#x201e;" horiz-adv-x="1212" d="M123 0h184q-8 -102 -46 -153.5t-138 -77.5v-144q201 27 299 144.5t98 316.5v262h-397v-348zM692 0h185q-8 -102 -46 -153.5t-139 -77.5v-144q201 27 299.5 144.5t98.5 316.5v262h-398v-348z" />
<glyph unicode="&#x2022;" horiz-adv-x="1024" d="M145 731q0 -76 29 -142.5t79 -116.5t116.5 -78.5t142.5 -28.5t142.5 28.5t116.5 78.5t79 116.5t29 142.5t-29 142.5t-79 116.5t-116.5 79t-142.5 29t-142.5 -29t-116.5 -79t-79 -116.5t-29 -142.5z" />
<glyph unicode="&#x2026;" horiz-adv-x="2048" d="M143 0h398v348h-398v-348zM825 0h398v348h-398v-348zM1507 0h398v348h-398v-348z" />
<glyph unicode="&#x202f;" horiz-adv-x="401" />
<glyph unicode="&#x2039;" horiz-adv-x="757" d="M170 424l397 -291v273l-245 180l245 180v272l-397 -290v-324z" />
<glyph unicode="&#x203a;" horiz-adv-x="757" d="M190 133l398 291v324l-398 290v-272l246 -180l-246 -180v-273z" />
<glyph unicode="&#x205f;" horiz-adv-x="503" />
<glyph unicode="&#x2122;" horiz-adv-x="2048" d="M102 1262h220v-644h253v644h220v200h-693v-200zM938 618h225v578h4l191 -578h201l190 578h4v-578h225v844h-348l-170 -512h-4l-170 512h-348v-844z" />
<glyph unicode="&#xe000;" horiz-adv-x="1100" d="M0 1100h1100v-1100h-1100v1100z" />
<glyph unicode="&#xfb01;" horiz-adv-x="1478" d="M12 856h228v-856h360v856h289v242h-289v67q0 39 8 61.5t23.5 34t35 14.5t44.5 3q47 0 91 -1t91 -3v225q-66 2 -128.5 3t-98.5 1q-125 0 -208 -13t-131 -51t-67.5 -106.5t-19.5 -179.5v-55h-228v-242zM995 0h361v1098h-361v-1098zM995 1233h361v254h-361v-254z" />
<glyph unicode="&#xfb02;" horiz-adv-x="1478" d="M12 856h228v-856h360v856h289v242h-289v67q0 39 8 61.5t23.5 34t35 14.5t44.5 3q47 0 91 -1t91 -3v225q-66 2 -128.5 3t-98.5 1q-125 0 -208 -13t-131 -51t-67.5 -106.5t-19.5 -179.5v-55h-228v-242zM995 0h361v1487h-361v-1487z" />
<glyph unicode="&#xfb03;" horiz-adv-x="2351" d="M1868 0h360v1098h-360v-1098zM1868 1233h360v254h-360v-254zM884 856h228v-856h360v856h289v242h-289v67q0 39 8 61.5t23.5 34t35 14.5t44.5 3q47 0 91 -1t91 -3v225q-66 2 -128.5 3t-98.5 1q-125 0 -208 -13t-131 -51t-67.5 -106.5t-19.5 -179.5v-55h-228v-242zM12 856 h228v-856h360v856h289v242h-289v67q0 39 8 61.5t23.5 34t35 14.5t44.5 3q47 0 91 -1t91 -3v225q-66 2 -128.5 3t-98.5 1q-125 0 -208 -13t-131 -51t-67.5 -106.5t-19.5 -179.5v-55h-228v-242z" />
<glyph unicode="&#xfb04;" horiz-adv-x="2351" d="M1868 0h360v1487h-360v-1487zM884 856h228v-856h360v856h289v242h-289v67q0 39 8 61.5t23.5 34t35 14.5t44.5 3q47 0 91 -1t91 -3v225q-66 2 -128.5 3t-98.5 1q-125 0 -208 -13t-131 -51t-67.5 -106.5t-19.5 -179.5v-55h-228v-242zM12 856h228v-856h360v856h289v242h-289 v67q0 39 8 61.5t23.5 34t35 14.5t44.5 3q47 0 91 -1t91 -3v225q-66 2 -128.5 3t-98.5 1q-125 0 -208 -13t-131 -51t-67.5 -106.5t-19.5 -179.5v-55h-228v-242z" />
</font>
</defs>
</svg>
